<?xml version="1.0" encoding="UTF-8"?>
<svg width="225px" height="34px" viewBox="0 0 225 34" version="1.1" xmlns="http://www.w3.org/2000/svg" xmlns:xlink="http://www.w3.org/1999/xlink">
    <!-- Generator: Sketch 53.2 (72643) - https://sketchapp.com -->
    <title>colateral-logo-header</title>
    <desc>Created with Sketch.</desc>
    <defs>
        <path d="M0.198327869,11.6462951 C0.198327869,17.848 4.95480328,22.9950984 11.4852951,22.9950984 L11.4852951,22.9950984 C18.0561311,22.9950984 22.8985738,17.763918 22.8985738,11.5644754 L22.8985738,11.5644754 C22.8985738,5.36277049 18.0964754,0.215295082 11.5678689,0.215295082 L11.5678689,0.215295082 C5.00042623,0.215295082 0.198327869,5.44685246 0.198327869,11.6462951 L0.198327869,11.6462951 Z M3.52390164,11.5644754 C3.52390164,6.83778689 6.76765574,3.08539344 11.4852951,3.08539344 L11.4852951,3.08539344 C16.0751148,3.08539344 19.5711148,6.88152459 19.5711148,11.6462951 L19.5711148,11.6462951 C19.5711148,16.3288689 16.2858852,20.0850328 11.5678689,20.0850328 L11.5678689,20.0850328 C6.97955738,20.0850328 3.52390164,16.2904098 3.52390164,11.5644754 L3.52390164,11.5644754 Z" id="path-1"></path>
        <polygon id="path-3" points="0.0434615385 0.0113186813 3.99538462 0.0113186813 3.99538462 3.88197802 0.0434615385 3.88197802"></polygon>
        <polygon id="path-5" points="0.0297777778 0.0245136546 3.85466667 0.0245136546 3.85466667 30.8648035 0.0297777778 30.8648035"></polygon>
        <path d="M2.13292848,1.85226667 L3.13951417,4.55323333 C5.23761134,3.61138333 7.3357085,2.9256 10.0036302,2.9256 L10.0036302,2.9256 C14.2452227,2.9256 16.7366397,4.98333333 16.7366397,8.9723 L16.7366397,8.9723 L16.7366397,9.74356667 C14.724251,9.1862 12.6695951,8.80018333 9.78329285,8.80018333 L9.78329285,8.80018333 C4.05843455,8.80018333 0.124062078,11.2876333 0.124062078,16.0060833 L0.124062078,16.0060833 C0.124062078,20.63675 4.36408907,22.9517 8.56224022,22.9517 L8.56224022,22.9517 C12.5380972,22.9517 15.1621862,21.1504167 16.7366397,19.1352333 L16.7366397,19.1352333 L16.7366397,22.4794333 L19.9704723,22.4794333 L19.9704723,8.92783333 C19.9704723,3.09618333 16.5166937,0.00766666667 10.3531174,0.00766666667 L10.3531174,0.00766666667 C7.07388664,0.00766666667 4.62630229,0.736383333 2.13292848,1.85226667 L2.13292848,1.85226667 Z M3.53244265,15.8761333 C3.53244265,13.0456 5.89470985,11.2454667 10.1347368,11.2454667 L10.1347368,11.2454667 C12.8879757,11.2454667 15.1191363,11.7162 16.7781242,12.18885 L16.7781242,12.18885 L16.7781242,14.3320667 C16.7781242,17.8487667 13.3697436,20.3381333 9.21581646,20.3381333 L9.21581646,20.3381333 C6.15535762,20.3381333 3.53244265,18.7066667 3.53244265,15.8761333 L3.53244265,15.8761333 Z" id="path-7"></path>
        <path d="M3.22219444,0.129090909 L3.22219444,6.47381818 L0.317416667,6.47381818 L0.317416667,9.24 L3.22219444,9.24 L3.22219444,21.9330909 C3.22219444,26.2047273 5.76405556,27.8734545 9.11227778,27.8734545 L9.11227778,27.8734545 C10.6051111,27.8734545 11.7718611,27.5483636 12.8616944,26.9767273 L12.8616944,26.9767273 L12.8616944,24.2930909 C11.7718611,24.8225455 10.8871389,25.0265455 9.83811111,25.0265455 L9.83811111,25.0265455 C7.73897222,25.0265455 6.32847222,24.0890909 6.32847222,21.5287273 L6.32847222,21.5287273 L6.32847222,9.24 L12.9425833,9.24 L12.9425833,6.47381818 L6.32847222,6.47381818 L6.32847222,0.129090909 L3.22219444,0.129090909 Z" id="path-9"></path>
        <path d="M0.337875,11.6040656 C0.337875,18.3958525 5.195625,22.9947213 11.145375,22.9947213 L11.145375,22.9947213 C15.24975,22.9947213 17.887875,21.3481475 20.067375,18.9029836 L20.067375,18.9029836 L18.057,17.088623 C16.2975,18.9433279 14.2035,20.1687377 11.228625,20.1687377 L11.228625,20.1687377 C7.417125,20.1687377 4.06575,17.5120492 3.605625,12.7857377 L3.605625,12.7857377 L20.780625,12.7857377 C20.820375,12.4083115 20.820375,12.0693443 20.820375,11.7752459 L20.820375,11.7752459 C20.820375,5.36239344 17.136375,0.216803279 10.7265,0.216803279 L10.7265,0.216803279 C4.7355,0.216803279 0.337875,5.27868852 0.337875,11.6040656 L0.337875,11.6040656 Z M10.641,2.95757377 C14.9565,2.95757377 17.22,6.41813115 17.5545,10.3824262 L17.5545,10.3824262 L3.605625,10.3824262 C4.02375,6.12101639 6.8715,2.95757377 10.641,2.95757377 L10.641,2.95757377 Z" id="path-11"></path>
        <path d="M3.6289697,6.48216667 L3.6289697,0.69115 L0.239909091,0.69115 L0.239909091,22.8623833 L3.6289697,22.8623833 L3.6289697,14.02885 C3.6289697,7.33853333 7.67669697,3.86476667 12.6497879,3.86476667 L12.6497879,3.86476667 L12.9137273,3.86476667 L12.9137273,0.30705 C12.7825455,0.302066667 12.6521515,0.299383333 12.5229394,0.299383333 L12.5229394,0.299383333 C8.40233333,0.299383333 5.25042424,2.90566667 3.6289697,6.48216667 L3.6289697,6.48216667 Z" id="path-13"></path>
        <path d="M2.29,1.85226667 L3.27923077,4.55323333 C5.34115385,3.61138333 7.40307692,2.9256 10.025,2.9256 L10.025,2.9256 C14.1938462,2.9256 16.6419231,4.98333333 16.6419231,8.9723 L16.6419231,8.9723 L16.6419231,9.74356667 C14.6642308,9.1862 12.6446154,8.80018333 9.81076923,8.80018333 L9.81076923,8.80018333 C4.18269231,8.80018333 0.316153846,11.2876333 0.316153846,16.0060833 L0.316153846,16.0060833 C0.316153846,20.63675 4.48307692,22.9517 8.60846154,22.9517 L8.60846154,22.9517 C12.5161538,22.9517 15.095,21.1504167 16.6419231,19.1352333 L16.6419231,19.1352333 L16.6419231,22.4794333 L19.82,22.4794333 L19.82,8.92783333 C19.82,3.09618333 16.4257692,0.00766666667 10.3684615,0.00766666667 L10.3684615,0.00766666667 C7.14576923,0.00766666667 4.74230769,0.736383333 2.29,1.85226667 L2.29,1.85226667 Z M3.66576923,15.8761333 C3.66576923,13.0456 5.98692308,11.2454667 10.1538462,11.2454667 L10.1538462,11.2454667 C12.8615385,11.2454667 15.0523077,11.7162 16.6830769,12.18885 L16.6830769,12.18885 L16.6830769,14.3320667 C16.6830769,17.8487667 13.3334615,20.3381333 9.25076923,20.3381333 L9.25076923,20.3381333 C6.24269231,20.3381333 3.66576923,18.7066667 3.66576923,15.8761333 L3.66576923,15.8761333 Z" id="path-15"></path>
        <polygon id="path-17" points="0.2552 0.0245136546 3.6956 0.0245136546 3.6956 30.8648035 0.2552 30.8648035"></polygon>
        <path d="M0.264,0.82675 C0.4475,0.6655 0.629,0.48175 0.8055,0.29725 L0.8055,0.29725 C0.6265,0.48175 0.4475,0.6655 0.264,0.82675 L0.264,0.82675 Z" id="path-19"></path>
        <path d="M0.91375,0.6355 C0.66025,0.597 0.3985,0.559 0.1645,0.505 L0.1645,0.505 C0.3985,0.559 0.66025,0.597 0.91375,0.6355 L0.91375,0.6355 Z" id="path-21"></path>
        <path d="M0.17575,0.72 C0.427,0.621 0.67375,0.5295 0.925,0.407 L0.925,0.407 C0.67375,0.5215 0.427,0.621 0.17575,0.72 L0.17575,0.72 Z" id="path-23"></path>
        <path d="M0.91975,0.7495 C0.6685,0.64525 0.42625,0.53125 0.16975,0.4165 L0.16975,0.4165 C0.42625,0.53125 0.6685,0.64525 0.91975,0.7495 L0.91975,0.7495 Z" id="path-25"></path>
        <path d="M0.142228714,18.3228023 C2.24547826,19.5514576 4.58036821,20.4648136 7.07823641,20.9930847 L7.07823641,20.9930847 C7.16915716,20.9562034 7.25705978,20.919322 7.34835779,20.8755706 L7.34835779,20.8755706 C14.0580068,17.8386441 17.6944592,11.1103277 16.8595729,4.43588701 L16.8595729,4.43588701 C15.7085389,3.2860565 14.4088628,2.24 12.9616762,1.32483616 L12.9616762,1.32483616 C12.3497532,0.936135593 11.7216078,0.577446328 11.0881807,0.252384181 L11.0881807,0.252384181 C10.8795534,7.48655367 6.90431748,14.3837288 0.142228714,18.3228023 L0.142228714,18.3228023 Z" id="path-27"></path>
        <path d="M1.88858824,0.864 C1.35705882,0.7605 0.830117647,0.57 0.314823529,0.33 L0.314823529,0.33 C2.10529412,1.2105 3.95647059,1.20075 5.78964706,0.2265 L5.78964706,0.2265 C4.52929412,0.894 3.22482353,1.11975 1.88858824,0.864 L1.88858824,0.864 Z" id="path-29"></path>
        <path d="M0.4255,0.594 C0.529,0.56025 0.64375,0.525 0.74725,0.49125 L0.74725,0.49125 C0.64375,0.525 0.529,0.56025 0.4255,0.594 L0.4255,0.594 Z" id="path-31"></path>
        <path d="M0.25825,0.7225 C0.3505,0.5565 0.46525,0.38 0.55675,0.2235 L0.55675,0.2235 C0.46525,0.38 0.3505,0.5565 0.25825,0.7225 L0.25825,0.7225 Z" id="path-33"></path>
        <path d="M0.261,0.93075 C0.3405,0.67125 0.45525,0.44025 0.53625,0.18075 L0.53625,0.18075 C0.45525,0.44025 0.3405,0.67125 0.261,0.93075 L0.261,0.93075 Z" id="path-35"></path>
        <path d="M0.3555,0.8165 C0.417,0.6485 0.5015,0.4815 0.5775,0.318 L0.5775,0.318 C0.5015,0.4815 0.417,0.6485 0.3555,0.8165 L0.3555,0.8165 Z" id="path-37"></path>
        <path d="M0.22525,1.9856 C0.409,1.352 0.65575,0.7238 0.9745,0.092 L0.9745,0.092 C0.65575,0.7178 0.409,1.3496 0.22525,1.9856 L0.22525,1.9856 Z" id="path-39"></path>
        <path d="M0.461,0.67525 C0.4685,0.60625 0.4765,0.538 0.4765,0.469 L0.4765,0.469 C0.4765,0.526 0.4685,0.59425 0.461,0.67525 L0.461,0.67525 Z" id="path-41"></path>
        <path d="M0.20025,0.967 C0.441,0.7165 0.6945,0.4585 0.93525,0.21775 L0.93525,0.21775 C0.6945,0.4585 0.441,0.7165 0.20025,0.967 L0.20025,0.967 Z" id="path-43"></path>
        <path d="M0.342,0.841 C0.45675,0.589 0.5715,0.34075 0.69825,0.0925 L0.69825,0.0925 C0.5715,0.34075 0.45675,0.589 0.342,0.841 L0.342,0.841 Z" id="path-45"></path>
        <path d="M0.268888889,7.0988 C1.23,5.7324 2.36296296,4.5236 3.63740741,3.5072 L3.63740741,3.5072 C3.17074074,5.1928 2.87111111,6.962 2.75407407,8.7916 L2.75407407,8.7916 C2.70222222,9.628 2.69185185,10.4572 2.71592593,11.2764 L2.71592593,11.2764 C9.22925926,7.3884 17.337037,7.1136 24.2185185,11.0804 L24.2185185,11.0804 C24.2807407,8.558 23.9811111,5.9972 23.2766667,3.4908 L23.2766667,3.4908 C25.4085185,5.1764 27.1911111,7.442 28.4014815,10.194 L28.4014815,10.194 C29.1885185,11.9832 29.6777778,13.8412 29.8825926,15.708 L29.8825926,15.708 L29.8862963,15.708 C29.3314815,10.7056 26.8192593,5.9864 22.6137037,2.9828 L22.6137037,2.9828 C19.8014815,0.9732 16.6255556,0.0116 13.4859259,0.0112 L13.4859259,0.0112 C8.44037037,0.0112 3.4862963,2.4928 0.268888889,7.0988 L0.268888889,7.0988 Z" id="path-47"></path>
        <path d="M0.369,0.964 C0.415,0.733 0.468,0.481 0.522,0.27475 L0.522,0.27475 C0.468,0.481 0.415,0.733 0.369,0.964 L0.369,0.964 Z" id="path-49"></path>
        <path d="M0.39025,0.6115 C0.42475,0.5425 0.4705,0.473 0.49375,0.412 L0.49375,0.412 C0.4705,0.473 0.42475,0.5425 0.39025,0.6115 L0.39025,0.6115 Z" id="path-51"></path>
        <path d="M1.24931579,8.00353125 C1.86826316,8.367125 2.48131579,8.7660625 3.07889474,9.2031875 L3.07889474,9.2031875 C4.49068421,10.2350625 5.76173684,11.4103437 6.88394737,12.7018125 L6.88394737,12.7018125 C6.67984211,10.807875 6.19352632,8.92084375 5.41063158,7.099625 L5.41063158,7.099625 C4.20478947,4.30665625 2.43157895,2.00728125 0.312421053,0.29575 L0.312421053,0.29575 C1.01168421,2.8396875 1.31157895,5.44090625 1.24931579,8.00353125 L1.24931579,8.00353125 Z" id="path-53"></path>
        <path d="M0.138,0.885666667 C1.096875,0.669 2.028,0.380333333 2.91525,0.0233333333 L2.91525,0.0233333333 C2.91375,0.0233333333 2.91225,0.02 2.908875,0.02 L2.908875,0.02 C2.00025,0.386 1.072125,0.674 0.138,0.885666667 L0.138,0.885666667 Z" id="path-55"></path>
        <path d="M0.30225,0.505 C0.417,0.49375 0.531,0.48325 0.612,0.46 L0.612,0.46 C0.5205,0.48325 0.417,0.49375 0.30225,0.505 L0.30225,0.505 Z" id="path-57"></path>
        <path d="M0.94275,0.6175 C0.696,0.5365 0.43875,0.43375 0.192,0.319 L0.192,0.319 C0.43875,0.43375 0.696,0.5365 0.94275,0.6175 L0.94275,0.6175 Z" id="path-59"></path>
        <path d="M0.307,0.6005 C0.468,0.5775 0.621,0.5475 0.782,0.5015 L0.782,0.5015 C0.621,0.5475 0.468,0.5775 0.307,0.6005 L0.307,0.6005 Z" id="path-61"></path>
        <path d="M0.0385,0.5395 C0.289,0.4855 0.53875,0.4165 0.78925,0.347 L0.78925,0.347 C0.53875,0.4165 0.289,0.4855 0.0385,0.5395 L0.0385,0.5395 Z" id="path-63"></path>
        <path d="M0.702,0.61525 C0.58,0.5935 0.4645,0.54625 0.3345,0.523 L0.3345,0.523 C0.4645,0.54625 0.58,0.5935 0.702,0.61525 L0.702,0.61525 Z" id="path-65"></path>
        <path d="M0.55225,0.758 C0.58675,0.597 0.64375,0.428 0.6895,0.26 L0.6895,0.26 C0.64375,0.428 0.58675,0.597 0.55225,0.758 L0.55225,0.758 Z" id="path-67"></path>
        <path d="M0.4655,0.982 C0.4805,0.72925 0.503,0.4765 0.5265,0.23425 L0.5265,0.23425 C0.503,0.4765 0.4805,0.72925 0.4655,0.982 L0.4655,0.982 Z" id="path-69"></path>
        <path d="M0.121,0.677 C0.355,0.558 0.61825,0.437666667 0.87175,0.315333333 L0.87175,0.315333333 C0.61825,0.434333333 0.355,0.558 0.121,0.677 L0.121,0.677 Z" id="path-71"></path>
        <path d="M2.55214286,0.397 C2.59628571,0.324 2.64085714,0.252 2.68585714,0.18 L2.68585714,0.18 C2.64085714,0.2515 2.59628571,0.3235 2.55214286,0.397 L2.55214286,0.397 Z M0.121714286,5.8365 C0.637714286,4.1475 1.33285714,2.515 2.22128571,0.957 L2.22128571,0.957 C2.32885714,0.7705 2.439,0.582 2.55214286,0.397 L2.55214286,0.397 C1.54114286,2.049 0.719571429,3.8765 0.121714286,5.8365 L0.121714286,5.8365 Z M0.0972857143,5.917 C0.105428571,5.8905 0.113571429,5.8635 0.121714286,5.8365 L0.121714286,5.8365 C0.113571429,5.8635 0.105428571,5.8905 0.0972857143,5.917 L0.0972857143,5.917 Z" id="path-73"></path>
        <path d="M0.34,4.73706309 C0.327434783,4.88634029 0.317456522,5.03332091 0.305630435,5.18259811 L0.305630435,5.18259811 C-0.252782609,13.7204883 5.38641304,21.215352 13.2603696,22.9699332 L13.2603696,22.9699332 C12.1331957,22.7127171 11.0300435,22.3399069 9.97973913,21.852268 L9.97973913,21.852268 C11.571087,21.4798405 13.146913,20.9278977 14.6850435,20.1773013 L14.6850435,20.1773013 C15.4068043,19.8243947 16.0975217,19.4339774 16.7693913,19.0133219 L16.7693913,19.0133219 C10.4904783,15.0544141 6.30071739,8.01771659 6.03463043,0.0708109786 L6.03463043,0.0708109786 C3.94178261,1.27191828 2.01191304,2.83473572 0.34,4.73706309 L0.34,4.73706309 Z" id="path-75"></path>
        <path d="M0.42525,0.718 C0.564,0.6035 0.67725,0.488 0.80475,0.3735 L0.80475,0.3735 C0.67725,0.488 0.564,0.6035 0.42525,0.718 L0.42525,0.718 Z" id="path-77"></path>
        <path d="M0.424,0.9475 C0.508,0.70075 0.5845,0.4525 0.6915,0.199 L0.6915,0.199 C0.5845,0.4525 0.508,0.70075 0.424,0.9475 L0.424,0.9475 Z" id="path-79"></path>
        <path d="M0.4485,0.9225 C0.552,0.67125 0.6435,0.42675 0.7245,0.1755 L0.7245,0.1755 C0.6435,0.42675 0.552,0.67125 0.4485,0.9225 L0.4485,0.9225 Z" id="path-81"></path>
        <path d="M0.23,0.981 C0.3755,0.72825 0.521,0.47925 0.6895,0.23325 L0.6895,0.23325 C0.521,0.47925 0.3755,0.72825 0.23,0.981 L0.23,0.981 Z" id="path-83"></path>
        <path d="M0.349,0.8155 C0.523,0.6445 0.694,0.482 0.87775,0.3165 L0.87775,0.3165 C0.694,0.482 0.523,0.6445 0.349,0.8155 L0.349,0.8155 Z" id="path-85"></path>
        <path d="M4.81902703,1.22472527 C3.24421622,1.87120879 1.63081081,2.34659341 0.00151351351,2.66736264 L0.00151351351,2.66736264 C1.07686486,3.08736264 2.20632432,3.40846154 3.36037838,3.63 L3.36037838,3.63 C3.40616216,3.64087912 3.45535135,3.64681319 3.50302703,3.65637363 L3.50302703,3.65637363 C3.58362162,3.67153846 3.66497297,3.68505495 3.74405405,3.6956044 L3.74405405,3.6956044 C3.84243243,3.71571429 3.9392973,3.72956044 4.03767568,3.74307692 L4.03767568,3.74307692 C4.06605405,3.74901099 4.09405405,3.75527473 4.12205405,3.75857143 L4.12205405,3.75857143 C4.67448649,3.83934066 5.23751351,3.89736264 5.80962162,3.93098901 L5.80962162,3.93098901 C7.24140541,4.0167033 8.64027027,3.94054945 9.98956757,3.72461538 L9.98956757,3.72461538 C10.0073514,3.7232967 10.0247568,3.72197802 10.0372432,3.71868132 L10.0372432,3.71868132 C10.1761081,3.6956044 10.3134595,3.67285714 10.447027,3.64681319 L10.447027,3.64681319 C10.486,3.64087912 10.5192973,3.63461538 10.5582703,3.62835165 L10.5582703,3.62835165 C10.6600541,3.61021978 10.7637297,3.58714286 10.8677838,3.5643956 L10.8677838,3.5643956 C10.9328649,3.5521978 10.9975676,3.54 11.0611351,3.52582418 L11.0611351,3.52582418 C11.0789189,3.52153846 11.0944324,3.51725275 11.1122162,3.51263736 L11.1122162,3.51263736 C12.0551351,3.30296703 12.9931351,3.02043956 13.9080541,2.65681319 L13.9080541,2.65681319 C11.4024324,2.17516484 9.06254054,1.34241758 6.95308108,0.222197802 L6.95308108,0.222197802 C6.26518919,0.584505495 5.558,0.920769231 4.81902703,1.22472527 L4.81902703,1.22472527 Z" id="path-87"></path>
        <path d="M2.92394211,3.83893939 C2.90703158,3.86809091 2.89012105,3.89330303 2.87155263,3.92087879 L2.87155263,3.92087879 C2.83905789,3.97406061 2.80490526,4.02842424 2.77274211,4.08160606 L2.77274211,4.08160606 C2.64972632,4.28251515 2.52936316,4.48893939 2.41198421,4.6949697 L2.41198421,4.6949697 C1.71533684,5.93706061 1.17088421,7.24809091 0.771663158,8.59772727 L0.771663158,8.59772727 C0.766689474,8.61190909 0.760721053,8.62884848 0.756078947,8.64736364 L0.756078947,8.64736364 C0.715957895,8.78760606 0.676168421,8.93178788 0.637373684,9.074 L0.637373684,9.074 C0.626763158,9.10709091 0.615821053,9.14569697 0.609852632,9.18193939 L0.609852632,9.18193939 C0.577357895,9.30445455 0.546521053,9.4269697 0.517010526,9.54909091 L0.517010526,9.54909091 C0.503415789,9.59833333 0.489489474,9.65112121 0.480205263,9.70430303 L0.480205263,9.70430303 C0.454010526,9.81027273 0.429473684,9.91427273 0.409247368,10.0202424 L0.409247368,10.0202424 C0.393663158,10.0876061 0.378410526,10.1518182 0.366142105,10.2156364 L0.366142105,10.2156364 C0.347573684,10.3105758 0.329005263,10.3984242 0.312094737,10.4913939 L0.312094737,10.4913939 C0.296842105,10.5697879 0.281257895,10.6485758 0.267663158,10.7269697 L0.267663158,10.7269697 C0.253405263,10.7998485 0.242794737,10.8731212 0.230526316,10.946 L0.230526316,10.946 C0.213615789,11.0409394 0.198031579,11.1378485 0.182447368,11.2347576 L0.182447368,11.2347576 C0.176478947,11.2745455 0.170178947,11.3147273 0.165536842,11.3529394 L0.165536842,11.3529394 C0.104194737,11.7642121 0.0564473684,12.1770606 0.0206368421,12.597 L0.0206368421,12.597 C0.0176526316,12.6371818 0.0113526316,12.6789394 0.00836842105,12.7210909 L0.00836842105,12.7210909 C0.00836842105,12.7301515 0.00671052632,12.7411818 0.00671052632,12.7537879 L0.00671052632,12.7537879 C1.50577895,10.7943333 3.23695263,9.18745455 5.11634211,7.95127273 L5.11634211,7.95127273 C5.09445789,7.14606061 5.10407368,6.32942424 5.15049474,5.50609091 L5.15049474,5.50609091 C5.25195789,3.70539394 5.52484737,1.96339394 5.94097895,0.303333333 L5.94097895,0.303333333 C4.79868947,1.30433333 3.78405789,2.49284848 2.92394211,3.83893939 L2.92394211,3.83893939 Z" id="path-89"></path>
    </defs>
    <g id="Options" stroke="none" stroke-width="1" fill="none" fill-rule="evenodd">
        <g id="Version-6" transform="translate(-87.000000, -16.000000)">
            <g id="colateral-logo-header" transform="translate(87.000000, 16.000000)">
                <g id="Group-5" transform="translate(43.000000, 10.000000)" fill="#4A4A4A">
                    <path d="M11.424439,22.9942689 C4.98047154,22.9942689 0.113869919,17.804941 0.113869919,11.6473508 C0.113869919,5.44602295 4.98047154,0.21635082 11.424439,0.21635082 C15.6070569,0.21635082 18.2115447,1.94700656 20.260439,4.09656393 L18.0839187,6.37582623 C16.3338374,4.56146557 14.3701545,3.08456393 11.3835528,3.08456393 C6.89906504,3.08456393 3.48411382,6.83884262 3.48411382,11.5636459 C3.48411382,16.3299246 6.98427642,20.0842033 11.5952439,20.0842033 C14.4129512,20.0842033 16.587561,18.6913836 18.3414634,16.8351705 L20.4289512,18.7765967 C18.2115447,21.224023 15.5642602,22.9942689 11.424439,22.9942689" id="Fill-1"></path>
                    <path d="M35.330626,3.08543115 C30.5496179,3.08543115 27.2626748,6.83782459 27.2626748,11.5641361 C27.2626748,16.2900705 30.7643659,20.0850705 35.4143089,20.0850705 C40.1953171,20.0850705 43.5250569,16.3289066 43.5250569,11.6463328 C43.5250569,6.8815623 39.9820976,3.08543115 35.330626,3.08543115 M35.330626,22.9951361 C28.7124146,22.9951361 23.8920488,17.8476607 23.8920488,11.6463328 C23.8920488,5.44689016 28.7586504,0.215332787 35.4143089,0.215332787 C42.0306098,0.215332787 46.8972114,5.3628082 46.8972114,11.5641361 C46.8972114,17.7639557 41.9897236,22.9951361 35.330626,22.9951361" id="Fill-3"></path>
                </g>
                <g id="Group-8" transform="translate(67.000000, 10.000000)">
                    <mask id="mask-2" fill="white">
                        <use xlink:href="#path-1"></use>
                    </mask>
                    <g id="Clip-7"></g>
                    <polygon id="Fill-6" fill="#4A4A4A" mask="url(#mask-2)" points="-192.560902 1696.43664 893.340738 1696.43664 893.340738 -2149.465 -192.560902 -2149.465"></polygon>
                </g>
                <polygon id="Fill-9" fill="#F05A2C" points="94 33 98 33 98 27 94 27"></polygon>
                <g id="Group-13" transform="translate(94.000000, 29.000000)">
                    <mask id="mask-4" fill="white">
                        <use xlink:href="#path-3"></use>
                    </mask>
                    <g id="Clip-12"></g>
                    <polygon id="Fill-11" fill="#F05A2C" mask="url(#mask-4)" points="-224.425 1467.48736 883.267308 1467.48736 883.267308 -1895.15 -224.425 -1895.15"></polygon>
                </g>
                <polygon id="Fill-14" fill="#4A4A4A" points="105 33 108 33 108 3 105 3"></polygon>
                <g id="Group-18" transform="translate(105.000000, 2.000000)">
                    <mask id="mask-6" fill="white">
                        <use xlink:href="#path-5"></use>
                    </mask>
                    <g id="Clip-17"></g>
                    <polygon id="Fill-16" fill="#4A4A4A" mask="url(#mask-6)" points="-272.313333 1707.45383 1007.68667 1707.45383 1007.68667 -2144.51404 -272.313333 -2144.51404"></polygon>
                </g>
                <path d="M118.091282,26.9071741 C118.091282,29.7446119 120.469819,31.3800581 123.245548,31.3800581 C127.013725,31.3800581 130.105007,28.8846192 130.105007,25.3593411 L130.105007,23.2108965 C128.599653,22.7367093 126.576423,22.2648277 124.079332,22.2648277 C120.233776,22.2648277 118.091282,24.0693521 118.091282,26.9071741 M117.73491,15.5562703 L116.822327,12.8490995 C119.083374,11.7301099 121.303248,11 124.277395,11 C129.867544,11 133,14.0956661 133,19.9419254 L133,33.5265813 L130.067027,33.5265813 L130.067027,30.1738397 C128.639408,32.1939386 126.259451,34 122.653487,34 C118.845556,34 115,31.6790189 115,27.0370568 C115,22.3074815 118.568338,19.813964 123.760939,19.813964 C126.37836,19.813964 128.241861,20.200538 130.067027,20.7596485 L130.067027,19.9865005 C130.067027,15.9874194 127.807399,13.9246667 123.960423,13.9246667 C121.541066,13.9246667 119.63781,14.6125071 117.73491,15.5562703" id="Fill-19" fill="#4A4A4A"></path>
                <g id="Group-23" transform="translate(114.000000, 11.000000)">
                    <mask id="mask-8" fill="white">
                        <use xlink:href="#path-7"></use>
                    </mask>
                    <g id="Clip-22"></g>
                    <polygon id="Fill-21" fill="#4A4A4A" mask="url(#mask-8)" points="-249.182794 1724.32725 877.942713 1724.32725 877.942713 -2185.67275 -249.182794 -2185.67275"></polygon>
                </g>
                <path d="M145.189697,26.5968125 C145.189697,29.1807673 146.642116,30.1268595 148.803638,30.1268595 C149.883842,30.1268595 150.794857,29.9209799 151.917451,29.3870139 L151.917451,32.0950103 C150.794857,32.6719137 149.593433,33 148.056234,33 C144.608878,33 141.991104,31.3158971 141.991104,27.0049019 L141.991104,14.1952239 L139,14.1952239 L139,11.4035545 L141.991104,11.4035545 L141.991104,5 L145.189697,5 L145.189697,11.4035545 L152,11.4035545 L152,14.1952239 L145.189697,14.1952239 L145.189697,26.5968125 Z" id="Fill-24" fill="#4A4A4A"></path>
                <g id="Group-28" transform="translate(139.000000, 5.000000)">
                    <mask id="mask-10" fill="white">
                        <use xlink:href="#path-9"></use>
                    </mask>
                    <g id="Clip-27"></g>
                    <polygon id="Fill-26" fill="#4A4A4A" mask="url(#mask-10)" points="-252.67125 1641.90727 787.32875 1641.90727 787.32875 -2067.18364 -252.67125 -2067.18364"></polygon>
                </g>
                <path d="M171.651611,21.2645257 C171.308275,17.261513 168.987971,13.7671578 164.563438,13.7671578 C160.6987,13.7671578 157.779,16.9614964 157.350311,21.2645257 L171.651611,21.2645257 Z M165.16591,31.1464162 C168.215562,31.1464162 170.362852,29.9090382 172.166807,28.0365999 L174.227975,29.8686807 C171.993409,32.3377255 169.288631,34 165.080172,34 C158.980483,34 154,29.3565966 154,22.4980963 C154,16.1109419 158.508349,11 164.651098,11 C171.222922,11 175,16.1958451 175,22.6709485 C175,22.9679192 175,23.310197 174.959246,23.6913094 L157.350311,23.6913094 C157.822062,28.4637808 161.258111,31.1464162 165.16591,31.1464162 L165.16591,31.1464162 Z" id="Fill-29" fill="#4A4A4A"></path>
                <g id="Group-33" transform="translate(154.000000, 10.000000)">
                    <mask id="mask-12" fill="white">
                        <use xlink:href="#path-11"></use>
                    </mask>
                    <g id="Clip-32"></g>
                    <polygon id="Fill-31" fill="#4A4A4A" mask="url(#mask-12)" points="-279.264375 1696.43664 800.735625 1696.43664 800.735625 -2149.465 -279.264375 -2149.465"></polygon>
                </g>
                <path d="M183.476284,33 L180,33 L180,12.3647221 L183.476284,12.3647221 L183.476284,17.7545548 C185.191595,14.3209313 188.577365,11.8484655 193,12.0072314 L193,15.3184803 L192.729268,15.3184803 C187.628186,15.3184803 183.476284,18.551595 183.476284,24.7784269 L183.476284,33 Z" id="Fill-34" fill="#4A4A4A"></path>
                <g id="Group-38" transform="translate(180.000000, 10.000000)">
                    <mask id="mask-14" fill="white">
                        <use xlink:href="#path-13"></use>
                    </mask>
                    <g id="Clip-37"></g>
                    <polygon id="Fill-36" fill="#4A4A4A" mask="url(#mask-14)" points="-320.944394 1724.71058 813.601061 1724.71058 813.601061 -2185.28942 -320.944394 -2185.28942"></polygon>
                </g>
                <path d="M200.091343,26.9071741 C200.091343,29.7446119 202.469572,31.3800581 205.245711,31.3800581 C209.013962,31.3800581 212.105305,28.8846192 212.105305,25.3593411 L212.105305,23.2108965 C210.599566,22.7367093 208.578071,22.2648277 206.079156,22.2648277 C202.233524,22.2648277 200.091343,24.0693521 200.091343,26.9071741 M199.734609,15.5562703 L198.822007,12.8490995 C201.084875,11.7301099 203.303017,11 206.277223,11 C211.867482,11 215,14.0956661 215,19.9419254 L215,33.5265813 L212.066969,33.5265813 L212.066969,30.1738397 C210.639677,32.1939386 208.259673,34 204.653283,34 C200.845632,34 197,31.6790189 197,27.0370568 C197,22.3074815 200.568409,19.813964 205.762532,19.813964 C208.378229,19.813964 210.241767,20.200538 212.066969,20.7596485 L212.066969,19.9865005 C212.066969,15.9874194 209.807651,13.9246667 205.960245,13.9246667 C203.54084,13.9246667 201.637547,14.6125071 199.734609,15.5562703" id="Fill-39" fill="#4A4A4A"></path>
                <g id="Group-43" transform="translate(195.000000, 11.000000)">
                    <mask id="mask-16" fill="white">
                        <use xlink:href="#path-15"></use>
                    </mask>
                    <g id="Clip-42"></g>
                    <polygon id="Fill-41" fill="#4A4A4A" mask="url(#mask-16)" points="-327.963462 1724.32725 779.728846 1724.32725 779.728846 -2185.67275 -327.963462 -2185.67275"></polygon>
                </g>
                <polygon id="Fill-44" fill="#4A4A4A" points="221 33 224 33 224 3 221 3"></polygon>
                <g id="Group-48" transform="translate(221.000000, 2.000000)">
                    <mask id="mask-18" fill="white">
                        <use xlink:href="#path-17"></use>
                    </mask>
                    <g id="Clip-47"></g>
                    <polygon id="Fill-46" fill="#4A4A4A" mask="url(#mask-18)" points="-369.082 1707.45383 782.918 1707.45383 782.918 -2144.51404 -369.082 -2144.51404"></polygon>
                </g>
                <g id="Group-51" transform="translate(20.000000, 33.000000)">
                    <mask id="mask-20" fill="white">
                        <use xlink:href="#path-19"></use>
                    </mask>
                    <g id="Clip-50"></g>
                    <polygon id="Fill-49" fill="#F27361" mask="url(#mask-20)" points="-4.736 8.32675 5.8055 8.32675 5.8055 -7.202 -4.736 -7.202"></polygon>
                </g>
                <g id="Group-54" transform="translate(13.000000, 33.000000)">
                    <mask id="mask-22" fill="white">
                        <use xlink:href="#path-21"></use>
                    </mask>
                    <g id="Clip-53"></g>
                    <polygon id="Fill-52" fill="#F27361" mask="url(#mask-22)" points="-7.3355 5.6355 8.4145 5.6355 8.4145 -4.495 -7.3355 -4.495"></polygon>
                </g>
                <g id="Group-57" transform="translate(20.000000, 33.000000)">
                    <mask id="mask-24" fill="white">
                        <use xlink:href="#path-23"></use>
                    </mask>
                    <g id="Clip-56"></g>
                    <polygon id="Fill-55" fill="#F27361" mask="url(#mask-24)" points="-7.32425 5.7205 8.42575 5.7205 8.42575 -4.5935 -7.32425 -4.5935"></polygon>
                </g>
                <g id="Group-60" transform="translate(13.000000, 33.000000)">
                    <mask id="mask-26" fill="white">
                        <use xlink:href="#path-25"></use>
                    </mask>
                    <g id="Clip-59"></g>
                    <polygon id="Fill-58" fill="#F27361" mask="url(#mask-26)" points="-7.33025 8.2495 8.41975 8.2495 8.41975 -7.08275 -7.33025 -7.08275"></polygon>
                </g>
                <path d="M33.8807651,14.2358787 C32.7188602,13.0716527 31.406098,12.0125 29.9447644,11.0858787 C29.3264786,10.6923117 28.6925737,10.3291318 28.0529545,10 C27.8422878,17.3247385 23.8285727,24.3086297 17,28.2966527 C19.1238099,29.5406904 21.4815247,30.4654812 24.0038109,31 C24.0956204,30.9626569 24.1843823,30.9256799 24.2765728,30.8813808 C31.0518122,27.8060669 34.7238129,20.9938808 33.8807651,14.2358787" id="Fill-61" fill="#2BBEC7"></path>
                <g id="Group-65" transform="translate(17.000000, 10.000000)">
                    <mask id="mask-28" fill="white">
                        <use xlink:href="#path-27"></use>
                    </mask>
                    <g id="Clip-64"></g>
                    <polygon id="Fill-63" fill="#2BBEC7" mask="url(#mask-28)" points="-142.117421 1627.20723 944.404318 1627.20723 944.404318 -2060.92836 -142.117421 -2060.92836"></polygon>
                </g>
                <g id="Group-68" transform="translate(14.000000, 33.000000)">
                    <mask id="mask-30" fill="white">
                        <use xlink:href="#path-29"></use>
                    </mask>
                    <g id="Clip-67"></g>
                    <polygon id="Fill-66" fill="#F27361" mask="url(#mask-30)" points="-3.21458824 8.47425 9.31905882 8.47425 9.31905882 -7.27425 -3.21458824 -7.27425"></polygon>
                </g>
                <g id="Group-71" transform="translate(20.000000, 33.000000)">
                    <mask id="mask-32" fill="white">
                        <use xlink:href="#path-31"></use>
                    </mask>
                    <g id="Clip-70"></g>
                    <polygon id="Fill-69" fill="#F27361" mask="url(#mask-32)" points="-7.0745 8.094 8.24725 8.094 8.24725 -7.0095 -7.0745 -7.0095"></polygon>
                </g>
                <g id="Group-74" transform="translate(0.000000, 13.000000)">
                    <mask id="mask-34" fill="white">
                        <use xlink:href="#path-33"></use>
                    </mask>
                    <g id="Clip-73"></g>
                    <polygon id="Fill-72" fill="#34383D" mask="url(#mask-34)" points="-7.24175 5.7225 8.05675 5.7225 8.05675 -4.7765 -7.24175 -4.7765"></polygon>
                </g>
                <g id="Group-77" transform="translate(1.000000, 13.000000)">
                    <mask id="mask-36" fill="white">
                        <use xlink:href="#path-35"></use>
                    </mask>
                    <g id="Clip-76"></g>
                    <polygon id="Fill-75" fill="#34383D" mask="url(#mask-36)" points="-7.23975 8.43 8.0355 8.43 8.0355 -7.3185 -7.23975 -7.3185"></polygon>
                </g>
                <g id="Group-80" transform="translate(0.000000, 13.000000)">
                    <mask id="mask-38" fill="white">
                        <use xlink:href="#path-37"></use>
                    </mask>
                    <g id="Clip-79"></g>
                    <polygon id="Fill-78" fill="#34383D" mask="url(#mask-38)" points="-4.6445 5.816 5.5775 5.816 5.5775 -4.683 -4.6445 -4.683"></polygon>
                </g>
                <g id="Group-83" transform="translate(0.000000, 14.000000)">
                    <mask id="mask-40" fill="white">
                        <use xlink:href="#path-39"></use>
                    </mask>
                    <g id="Clip-82"></g>
                    <polygon id="Fill-81" fill="#34383D" mask="url(#mask-40)" points="-7.2755 7.9862 8.4745 7.9862 8.4745 -5.908 -7.2755 -5.908"></polygon>
                </g>
                <g id="Group-86" transform="translate(0.000000, 16.000000)">
                    <mask id="mask-42" fill="white">
                        <use xlink:href="#path-41"></use>
                    </mask>
                    <g id="Clip-85"></g>
                    <polygon id="Fill-84" fill="#34383D" mask="url(#mask-42)" points="-4.5395 8.17525 5.476 8.17525 5.476 -7.031 -4.5395 -7.031"></polygon>
                </g>
                <g id="Group-89" transform="translate(3.000000, 6.000000)">
                    <mask id="mask-44" fill="white">
                        <use xlink:href="#path-43"></use>
                    </mask>
                    <g id="Clip-88"></g>
                    <polygon id="Fill-87" fill="#34383D" mask="url(#mask-44)" points="-7.29975 8.46625 8.43525 8.46625 8.43525 -7.28225 -7.29975 -7.28225"></polygon>
                </g>
                <g id="Group-92" transform="translate(0.000000, 13.000000)">
                    <mask id="mask-46" fill="white">
                        <use xlink:href="#path-45"></use>
                    </mask>
                    <g id="Clip-91"></g>
                    <polygon id="Fill-90" fill="#34383D" mask="url(#mask-46)" points="-7.15725 8.34175 8.199 8.34175 8.199 -7.40675 -7.15725 -7.40675"></polygon>
                </g>
                <path d="M7.41203246,3.5634726 C6.93933748,5.28163949 6.63583728,7.08461386 6.51728838,8.94997065 C6.46514187,9.80253044 6.45463754,10.6477511 6.4790226,11.4827786 C13.0761189,7.51965991 21.2886316,7.23995833 28.2590068,11.282584 C28.3220328,8.71185735 28.0185326,6.10198875 27.3049883,3.54634802 C29.4647542,5.26451491 31.2699989,7.5742955 32.4963798,10.3790582 C33.2935836,12.2028267 33.7887879,14.0967245 33.9962485,16 L34,16 C33.4383933,10.9009504 30.8933435,6.09057236 26.6334613,3.02853313 C19.2076482,-2.31066844 9.28743107,-0.392306977 4,7.22446465 C4.97352658,5.83166492 6.12150012,4.59951011 7.41203246,3.5634726" id="Fill-93" fill="#B2B3B4"></path>
                <g id="Group-97" transform="translate(4.000000, 0.000000)">
                    <mask id="mask-48" fill="white">
                        <use xlink:href="#path-47"></use>
                    </mask>
                    <g id="Clip-96"></g>
                    <polygon id="Fill-95" fill="#B2B3B4" mask="url(#mask-48)" points="-126.187037 1810.898 940.47963 1810.898 940.47963 -2269.102 -126.187037 -2269.102"></polygon>
                </g>
                <g id="Group-100" transform="translate(1.000000, 11.000000)">
                    <mask id="mask-50" fill="white">
                        <use xlink:href="#path-49"></use>
                    </mask>
                    <g id="Clip-99"></g>
                    <polygon id="Fill-98" fill="#34383D" mask="url(#mask-50)" points="-4.6315 8.46325 5.522 8.46325 5.522 -7.226 -4.6315 -7.226"></polygon>
                </g>
                <g id="Group-103" transform="translate(1.000000, 11.000000)">
                    <mask id="mask-52" fill="white">
                        <use xlink:href="#path-51"></use>
                    </mask>
                    <g id="Clip-102"></g>
                    <polygon id="Fill-101" fill="#34383D" mask="url(#mask-52)" points="-7.10975 5.6115 7.99375 5.6115 7.99375 -4.5875 -7.10975 -4.5875"></polygon>
                </g>
                <path d="M27,4 C27.6381476,6.25590229 27.9119758,8.56187171 27.8554609,10.8339828 C28.4202736,11.1563574 28.9803768,11.5104293 29.5260148,11.8976391 C30.8150931,12.8125348 31.9756672,13.8545794 33,15 C32.8139717,13.32041 32.369926,11.6473034 31.6550796,10.0325485 C30.5537116,7.55656701 28.934963,5.51786241 27,4" id="Fill-104" fill="#4A4A4A"></path>
                <g id="Group-108" transform="translate(27.000000, 3.000000)">
                    <mask id="mask-54" fill="white">
                        <use xlink:href="#path-53"></use>
                    </mask>
                    <g id="Clip-107"></g>
                    <polygon id="Fill-106" fill="#4A4A4A" mask="url(#mask-54)" points="-148.365 1835.94328 912.687632 1835.94328 912.687632 -2307.80672 -148.365 -2307.80672"></polygon>
                </g>
                <g id="Group-111" transform="translate(21.000000, 32.000000)">
                    <mask id="mask-56" fill="white">
                        <use xlink:href="#path-55"></use>
                    </mask>
                    <g id="Clip-110"></g>
                    <polygon id="Fill-109" fill="#7FC9C3" mask="url(#mask-56)" points="-3.612 4.219 6.665625 4.219 6.665625 -3.31333333 -3.612 -3.31333333"></polygon>
                </g>
                <g id="Group-114" transform="translate(20.000000, 33.000000)">
                    <mask id="mask-58" fill="white">
                        <use xlink:href="#path-57"></use>
                    </mask>
                    <g id="Clip-113"></g>
                    <polygon id="Fill-112" fill="#7FC9C3" mask="url(#mask-58)" points="-7.19775 8.005 8.112 8.005 8.112 -7.04075 -7.19775 -7.04075"></polygon>
                </g>
                <g id="Group-117" transform="translate(13.000000, 33.000000)">
                    <mask id="mask-60" fill="white">
                        <use xlink:href="#path-59"></use>
                    </mask>
                    <g id="Clip-116"></g>
                    <polygon id="Fill-115" fill="#7FC9C3" mask="url(#mask-60)" points="-7.308 8.1175 8.442 8.1175 8.442 -7.181 -7.308 -7.181"></polygon>
                </g>
                <g id="Group-120" transform="translate(20.000000, 33.000000)">
                    <mask id="mask-62" fill="white">
                        <use xlink:href="#path-61"></use>
                    </mask>
                    <g id="Clip-119"></g>
                    <polygon id="Fill-118" fill="#7FC9C3" mask="url(#mask-62)" points="-4.693 5.601 5.782 5.601 5.782 -4.498 -4.693 -4.498"></polygon>
                </g>
                <g id="Group-123" transform="translate(20.000000, 33.000000)">
                    <mask id="mask-64" fill="white">
                        <use xlink:href="#path-63"></use>
                    </mask>
                    <g id="Clip-122"></g>
                    <polygon id="Fill-121" fill="#7FC9C3" mask="url(#mask-64)" points="-7.46075 5.5395 8.28925 5.5395 8.28925 -4.6525 -7.46075 -4.6525"></polygon>
                </g>
                <g id="Group-126" transform="translate(14.000000, 33.000000)">
                    <mask id="mask-66" fill="white">
                        <use xlink:href="#path-65"></use>
                    </mask>
                    <g id="Clip-125"></g>
                    <polygon id="Fill-124" fill="#7FC9C3" mask="url(#mask-66)" points="-4.6655 8.11525 5.702 8.11525 5.702 -6.97625 -4.6655 -6.97625"></polygon>
                </g>
                <g id="Group-129" transform="translate(0.000000, 13.000000)">
                    <mask id="mask-68" fill="white">
                        <use xlink:href="#path-67"></use>
                    </mask>
                    <g id="Clip-128"></g>
                    <polygon id="Fill-127" fill="#7FC9C3" mask="url(#mask-68)" points="-6.9485 5.758 8.1895 5.758 8.1895 -4.74 -6.9485 -4.74"></polygon>
                </g>
                <g id="Group-132" transform="translate(0.000000, 16.000000)">
                    <mask id="mask-70" fill="white">
                        <use xlink:href="#path-69"></use>
                    </mask>
                    <g id="Clip-131"></g>
                    <polygon id="Fill-130" fill="#7FC9C3" mask="url(#mask-70)" points="-4.535 8.482 5.5265 8.482 5.5265 -7.2665 -4.535 -7.2665"></polygon>
                </g>
                <g id="Group-135" transform="translate(1.000000, 11.000000)">
                    <mask id="mask-72" fill="white">
                        <use xlink:href="#path-71"></use>
                    </mask>
                    <g id="Clip-134"></g>
                    <polygon id="Fill-133" fill="#7FC9C3" mask="url(#mask-72)" points="-7.379 4.01066667 8.371 4.01066667 8.371 -3.01766667 -7.379 -3.01766667"></polygon>
                </g>
                <g id="Group-138" transform="translate(1.000000, 6.000000)">
                    <mask id="mask-74" fill="white">
                        <use xlink:href="#path-73"></use>
                    </mask>
                    <g id="Clip-137"></g>
                    <polygon id="Fill-136" fill="#7FC9C3" mask="url(#mask-74)" points="-4.18842857 10.9165 6.97157143 10.9165 6.97157143 -4.82 -4.18842857 -4.82"></polygon>
                </g>
                <path d="M14.8527327,30.1951126 C15.5962811,29.8402728 16.307849,29.4485266 17,29.026025 C10.5315478,25.0497434 6.21531214,17.9817808 5.94119292,10 C3.78516908,11.2063784 1.79704326,12.7764387 0.0746608053,14.6871145 C0.0620970075,14.8366624 0.0514368154,14.9846725 0.0392537388,15.1342203 C-0.53601591,23.7099637 5.27378875,31.2377188 13.3850527,33 C12.2238532,32.7416551 11.0874006,32.3672088 10.0057719,31.8774299 C11.6447764,31.5029836 13.2681713,30.949003 14.8527327,30.1951126" id="Fill-139" fill="#F05A2C"></path>
                <g id="Group-143" transform="translate(0.000000, 10.000000)">
                    <mask id="mask-76" fill="white">
                        <use xlink:href="#path-75"></use>
                    </mask>
                    <g id="Clip-142"></g>
                    <polygon id="Fill-141" fill="#F05A2C" mask="url(#mask-76)" points="-122.58663 1722.14022 941.761196 1722.14022 941.761196 -2182.03265 -122.58663 -2182.03265"></polygon>
                </g>
                <g id="Group-146" transform="translate(3.000000, 6.000000)">
                    <mask id="mask-78" fill="white">
                        <use xlink:href="#path-77"></use>
                    </mask>
                    <g id="Clip-145"></g>
                    <polygon id="Fill-144" fill="#7FC9C3" mask="url(#mask-78)" points="-7.07475 5.718 8.304 5.718 8.304 -4.6265 -7.07475 -4.6265"></polygon>
                </g>
                <g id="Group-149" transform="translate(0.000000, 13.000000)">
                    <mask id="mask-80" fill="white">
                        <use xlink:href="#path-79"></use>
                    </mask>
                    <g id="Clip-148"></g>
                    <polygon id="Fill-147" fill="#7FC9C3" mask="url(#mask-80)" points="-4.576 8.4475 5.692 8.4475 5.692 -7.301 -4.576 -7.301"></polygon>
                </g>
                <g id="Group-152" transform="translate(0.000000, 13.000000)">
                    <mask id="mask-82" fill="white">
                        <use xlink:href="#path-81"></use>
                    </mask>
                    <g id="Clip-151"></g>
                    <polygon id="Fill-150" fill="#7FC9C3" mask="url(#mask-82)" points="-7.0515 8.42325 8.2245 8.42325 8.2245 -7.32525 -7.0515 -7.32525"></polygon>
                </g>
                <g id="Group-155" transform="translate(1.000000, 11.000000)">
                    <mask id="mask-84" fill="white">
                        <use xlink:href="#path-83"></use>
                    </mask>
                    <g id="Clip-154"></g>
                    <polygon id="Fill-153" fill="#7FC9C3" mask="url(#mask-84)" points="-4.77 8.48175 5.689 8.48175 5.689 -7.26675 -4.77 -7.26675"></polygon>
                </g>
                <g id="Group-158" transform="translate(0.000000, 13.000000)">
                    <mask id="mask-86" fill="white">
                        <use xlink:href="#path-85"></use>
                    </mask>
                    <g id="Clip-157"></g>
                    <polygon id="Fill-156" fill="#7FC9C3" mask="url(#mask-86)" points="-7.15025 5.8155 8.3785 5.8155 8.3785 -4.6835 -7.15025 -4.6835"></polygon>
                </g>
                <path d="M14.8496408,30.0713048 C13.2642033,30.7621397 11.6399108,31.2697853 10,31.6129128 C11.0822268,32.0617265 12.2193078,32.4048541 13.3811493,32.641591 C13.4272421,32.6528641 13.4767632,32.6595576 13.5247606,32.6694216 C13.6062799,32.6856268 13.6877993,32.7004229 13.767414,32.7116961 C13.8664562,32.7331856 13.9639747,32.7479816 14.063017,32.7624254 C14.0915869,32.7687666 14.1197758,32.77546 14.1483457,32.7789829 C14.7045059,32.8652932 15.2709512,32.9272957 15.8469199,32.963229 C17.2883653,33.0548236 18.6966696,32.973093 20.0554528,32.7426973 C20.0729756,32.7412882 20.0904985,32.7395267 20.1030692,32.7360039 C20.2428711,32.7116961 20.3811493,32.6873883 20.5159991,32.6595576 C20.5548542,32.6528641 20.5883761,32.646523 20.6272312,32.6398295 C20.7300827,32.6201014 20.834458,32.5957936 20.9392142,32.5714858 C21.0047344,32.5584512 21.0702547,32.5450643 21.1338703,32.5302683 C21.1513931,32.5256885 21.1673923,32.5207565 21.185296,32.5158245 C22.1345777,32.2921222 23.0789073,31.98986 24,31.6012874 C21.4774706,31.0869483 19.1217893,30.196719 16.9980953,29 C16.3055616,29.3871634 15.5936003,29.7461439 14.8496408,30.0713048" id="Fill-159" fill="#4A4A4A"></path>
                <g id="Group-163" transform="translate(10.000000, 29.000000)">
                    <mask id="mask-88" fill="white">
                        <use xlink:href="#path-87"></use>
                    </mask>
                    <g id="Clip-162"></g>
                    <polygon id="Fill-161" fill="#4A4A4A" mask="url(#mask-88)" points="-135.726216 1467.11374 954.003514 1467.11374 954.003514 -1895.52363 -135.726216 -1895.52363"></polygon>
                </g>
                <path d="M5.16622898,10.9855086 C5.14443762,10.1447556 5.15382466,9.29207404 5.20042465,8.43239994 C5.30334693,6.55222275 5.57925909,4.73333333 6,3 C4.84505783,4.0447714 3.81918757,5.28615725 2.94954462,6.69166271 C2.93244678,6.72210093 2.91534894,6.74883721 2.89657484,6.77721879 C2.86372018,6.83233666 2.8295245,6.88951115 2.79666983,6.94504034 C2.67195619,7.15481728 2.55059507,7.37035279 2.43191596,7.58547698 C1.7275521,8.88239203 1.17706878,10.2512894 0.773425714,11.6604968 C0.76873219,11.6757159 0.762362407,11.6929916 0.757668883,11.7119127 C0.717103425,11.8587565 0.676537967,12.0093023 0.637648768,12.1582028 C0.626920713,12.192343 0.615857406,12.2326531 0.609822875,12.2704952 C0.576968207,12.398418 0.545789797,12.5263408 0.515952394,12.6538522 C0.502207074,12.7052682 0.488126502,12.760386 0.478739454,12.8159152 C0.452254568,12.9265623 0.427445941,13.0351527 0.406995586,13.1457997 C0.391574007,13.2161367 0.375817176,13.283183 0.363412862,13.3498181 C0.344638766,13.448948 0.32586467,13.5402626 0.308766832,13.6377472 C0.293345253,13.7196013 0.277588423,13.8018668 0.26350785,13.8837209 C0.249427278,13.9598165 0.238699223,14.0363234 0.22629491,14.1124189 C0.20886182,14.2115488 0.193440241,14.3127353 0.178018662,14.4135105 C0.17164888,14.4558772 0.165279097,14.4978326 0.160585573,14.5377314 C0.0982287534,14.9667458 0.049952506,15.3978168 0.0140805722,15.8362917 C0.0110633067,15.8782471 0.00469352405,15.9218478 0.00167625859,15.9658598 C0.00167625859,15.9753204 0,15.9868375 0,16 C1.51533777,13.9540579 3.26602224,12.2762538 5.16622898,10.9855086" id="Fill-164" fill="#4A4A4A"></path>
                <g id="Group-168" transform="translate(1.000000, 3.000000)">
                    <mask id="mask-90" fill="white">
                        <use xlink:href="#path-89"></use>
                    </mask>
                    <g id="Clip-167"></g>
                    <polygon id="Fill-166" fill="#4A4A4A" mask="url(#mask-90)" points="-110.286395 1780.30864 844.660974 1780.30864 844.660974 -2237.87318 -110.286395 -2237.87318"></polygon>
                </g>
            </g>
        </g>
    </g>
</svg>