<?xml version="1.0" encoding="UTF-8"?>
<svg width="39px" height="35px" viewBox="0 0 39 35" version="1.1" xmlns="http://www.w3.org/2000/svg" xmlns:xlink="http://www.w3.org/1999/xlink">
    <!-- Generator: Sketch 53.2 (72643) - https://sketchapp.com -->
    <title>benefit-tick-icon</title>
    <desc>Created with Sketch.</desc>
    <defs>
        <polygon id="path-1" points="0 0.1275 28.9375415 0.1275 28.9375415 28.8445 0 28.8445"></polygon>
        <polygon id="path-3" points="0.0675625 0.123225 0.4425625 0.123225 0.4425625 0.375 0.0675625 0.375"></polygon>
    </defs>
    <g id="Options" stroke="none" stroke-width="1" fill="none" fill-rule="evenodd">
        <g id="Version-6" transform="translate(-348.000000, -1896.000000)">
            <g id="benefit-tick-icon" transform="translate(348.000000, 1894.000000)">
                <path d="M27.9009163,34.9609849 C27.8847783,35.0969849 28.0726059,35.048096 28.1062266,35.0685404 C28.0645369,34.8409849 27.8525025,34.9667627 27.9009163,34.9609849" id="Fill-1" fill="#38B8C2"></path>
                <polygon id="Fill-3" fill="#38B8C2" points="28.0172586 33.1255556 28.0939138 33.1651111 27.9060862 32.8348889"></polygon>
                <path d="M28.0062759,31 C27.6862069,31.1453716 28.0578276,31.5573664 27.9439655,31.8314863 L27.8713448,31.8764668 L28.1286552,32 C28.0883103,31.6672099 27.917069,31.2346806 28.0062759,31" id="Fill-5" fill="#38B8C2"></path>
                <path d="M28.0461276,29.8859218 C27.9215069,29.9548107 27.9385414,29.644144 28.0066793,30.1468107 C28.0201276,30.1214773 28.0281966,30.1143662 28.0380586,30.0992551 C28.0367138,30.0543662 28.0367138,29.9916996 28.0461276,29.8859218" id="Fill-7" fill="#38B8C2"></path>
                <path d="M27.975608,29.9809819 C27.9850218,30.2018708 28.0805045,29.8365374 27.975608,29.9809819" id="Fill-9" fill="#38B8C2"></path>
                <path d="M27.8726897,28.9256422 L27.9838621,29.2163089 C28.0573793,29.1558645 28.0739655,28.8971978 28.1273103,28.9927533 C28.0667931,28.6945311 27.9937241,28.7558645 27.8726897,28.9256422" id="Fill-11" fill="#38B8C2"></path>
                <path d="M27.9653245,27.9246667 L28.0123934,28.0753333 C28.0433245,28.0491111 28.0536348,28.0091111 27.9653245,27.9246667" id="Fill-13" fill="#38B8C2"></path>
                <path d="M28.0870806,29.1597778 L27.9880117,28.8402222 C27.9360117,28.882 27.83246,28.8864444 28.0234255,28.9868889 C27.9288393,28.9606667 28.0202875,29.0237778 28.0870806,29.1597778" id="Fill-15" fill="#38B8C2"></path>
                <path d="M28.1091317,28.7777778 C28.0396489,28.9351287 27.9957179,29.1383559 27.8849937,28.8570964 C27.9289248,29.3938904 28.1539593,29.3145718 28.1091317,28.7777778" id="Fill-17" fill="#38B8C2"></path>
                <path d="M28.0280768,30.796656 L27.9343872,31.0148782 L28.0415251,31.2037671 C27.9886286,31.1095449 28.1289389,30.7828782 28.0280768,30.796656" id="Fill-19" fill="#38B8C2"></path>
                <path d="M28.1344828,26.8338558 C28.0663448,26.8156336 27.952931,26.9316336 27.8655172,26.9534114 L27.9439655,27.1680781 C27.9905862,27.0578558 28.0331724,26.8485225 28.1344828,26.8338558" id="Fill-21" fill="#38B8C2"></path>
                <path d="M28.0595067,26.1592723 L27.9425067,25.8374945 C27.9290584,26.1250501 27.9846446,26.1774945 28.0595067,26.1592723" id="Fill-23" fill="#38B8C2"></path>
                <polygon id="Fill-25" fill="#38B8C2" points="27.8787414 27.849604 28.1243966 28.2222222 27.8756034 27.7777778"></polygon>
                <polygon id="Fill-27" fill="#38B8C2" points="27.9612241 24.9802222 28.1190172 25.1624444 27.8809828 24.8375556"></polygon>
                <path d="M28.8493793,24.1991445 C28.9798276,24.2906413 29.0703793,24.0739384 29.1506207,24.1705518 C29.1273103,24.0206656 29.0152414,23.8927507 28.9148276,23.7777778 C28.9708621,23.8999741 28.956069,24.0302968 28.8493793,24.1991445" id="Fill-29" fill="#38B8C2"></path>
                <path d="M27.9264828,22.8571111 C27.9578621,22.9473333 28.0138966,23.0406667 28.0735172,23.1428889 C28.0434828,23.0468889 28,22.9522222 27.9264828,22.8571111" id="Fill-31" fill="#38B8C2"></path>
                <path d="M27.9027241,26.1264444 C27.9439655,26.1015556 28.0515517,26.0535556 28.0972759,25.8735556 L27.9058621,25.9997778 C27.9049655,26.0384444 27.904069,26.082 27.9027241,26.1264444" id="Fill-33" fill="#38B8C2"></path>
                <path d="M27.9917069,25.1388889 L27.9979828,25.1344444 C28.0029138,24.9975556 28.0069483,24.902 28.0082931,24.8611111 C28.0060517,24.8962222 28.0011207,24.9802222 27.9917069,25.1388889" id="Fill-35" fill="#38B8C2"></path>
                <path d="M28.007452,26.016 C28.0079002,26.0044444 28.0083485,25.9955556 28.0083485,25.984 C27.9895209,25.9964444 27.9832451,26.0035556 28.007452,26.016" id="Fill-37" fill="#38B8C2"></path>
                <path d="M28.1925345,27.1808723 C28.0858448,26.9919834 27.9706379,26.5982056 27.8074655,26.9795389 C27.9388103,27.1150945 28.0316034,26.8964278 28.1925345,27.1808723" id="Fill-39" fill="#38B8C2"></path>
                <path d="M27.9549483,25.8166667 L27.9110172,26.158 C27.9621207,26.1513333 28.0356379,26.0895556 28.0889828,26.1833333 L27.9549483,25.8166667 Z" id="Fill-41" fill="#38B8C2"></path>
                <polygon id="Fill-43" fill="#38B8C2" points="27.9614483 25.9164444 28.0224138 26.0835556 28.0385517 25.9568889"></polygon>
                <path d="M28.0805434,23.124936 C27.9971641,23.0206314 27.9899917,22.9065876 27.9769917,22.7777778 C27.9393365,22.9156985 27.9187158,23.058646 27.9191641,23.1940534 C27.979233,23.2132178 28.0872675,23.2729102 28.0805434,23.124936" id="Fill-45" fill="#38B8C2"></path>
                <path d="M28.0118842,25.016196 C28.008298,25.0059738 28.0042635,24.9935294 28.0011256,24.9833071 C27.9845394,25.0037516 27.9796084,25.0197516 28.0118842,25.016196" id="Fill-47" fill="#38B8C2"></path>
                <polygon id="Fill-49" fill="#38B8C2" points="28.0174828 20.9822222 27.9825172 21.0111111 28.0156897 21.0177778"></polygon>
                <path d="M27.9721303,23.8610886 C27.9349234,24.0077553 27.9815441,24.0953109 28.0411648,24.1793109 C28.0214406,24.0695331 28.0093372,23.9530886 28.0075441,23.8281997 C27.9806475,23.8157553 27.9627165,23.8139775 27.9721303,23.8610886" id="Fill-51" fill="#38B8C2"></path>
                <path d="M28.0456894,22.8728889 C28.0053446,22.9493333 27.9717239,23.036 27.9403446,23.1271111 C28.0008618,23.0524444 28.095448,22.9004444 28.0456894,22.8728889" id="Fill-53" fill="#38B8C2"></path>
                <path d="M27.9840228,24.9965875 C27.9871607,25.0036986 27.9907469,25.0108097 27.9929883,25.0183652 C28.0337814,24.9703652 28.013609,24.9765875 27.9840228,24.9965875" id="Fill-55" fill="#38B8C2"></path>
                <path d="M28.0582759,24.0726667 C28.0304828,23.9971111 27.9834138,23.9375556 27.9417241,23.878 C27.9565172,23.9673333 27.9771379,24.0504444 28.0053793,24.122 C28.0188276,24.1037778 28.0394483,24.0855556 28.0582759,24.0726667" id="Fill-57" fill="#38B8C2"></path>
                <path d="M27,20.2916686 C27.1485929,20.3120668 27.2859287,20.6121629 27.126454,20.8714624 C27.2378987,21.1266132 27.7268293,20.9596243 28,20.7369724 C27.9350844,20.7290205 27.8754221,20.7290205 27.7876173,20.4666094 C27.7065666,20.5582286 27.5977486,21.0488233 27.4630394,20.8275544 C27.3864916,20.4797472 27.5159475,20.5426706 27.5943715,20.3736073 C27.4093809,20.5170864 27.3249531,19.9310694 27.0529081,20.0067848 L27.1485929,20.3120668 C27.1061914,20.3175986 27.0386492,20.2069641 27,20.2916686" id="Fill-59" fill="#38B8C2"></path>
                <path d="M27.8686552,22.1426659 L27.8906207,22.2222222 C27.9215517,22.1317014 27.9923793,22.0666794 28.1313448,21.946835 C28.0448276,21.8142411 27.978931,21.7867024 27.9197586,21.7777778 L27.8951034,22.1699496 L27.8686552,22.1426659 Z" id="Fill-61" fill="#38B8C2"></path>
                <path d="M28.1369546,23.6336947 C27.9929853,23.5234869 27.9318567,23.1842818 27.7758621,23.3920506 C27.7858831,23.8062331 27.8961149,23.6820235 27.9585796,23.9295393 C27.9228378,23.2615176 28.0387481,24.1214995 28.1202528,23.6386631 C28.1446374,23.7700994 28.1523203,23.8879855 28.1583329,24 C28.1757028,23.8794038 28.1977491,23.7633243 28.2241379,23.6540199 C28.2207976,23.6598916 28.2181253,23.6639566 28.215119,23.6693767 L28.215453,23.6725384 L28.2134488,23.6720867 C28.1954109,23.700542 28.1847217,23.7100271 28.1950768,23.6779584 C28.1934066,23.6757001 28.1924045,23.66757 28.1920705,23.663505 C28.1716943,23.6594399 28.1546585,23.6467931 28.1376227,23.6336947 C28.1673519,23.4399277 28.1750347,23.6034327 28.1920705,23.663505 C28.1990853,23.6657633 28.205766,23.6711834 28.2134488,23.6720867 L28.215119,23.6693767 L28.1362866,23 C28.1162444,23.1418248 28.1202528,23.3193315 28.1369546,23.6336947" id="Fill-63" fill="#38B8C2"></path>
                <path d="M26.9773621,27.0282298 C26.9943966,27.0077854 27.0082931,27.0086742 27.0226379,27.0073409 C26.9988793,26.9646742 26.9827414,26.9482298 26.9773621,27.0282298" id="Fill-65" fill="#38B8C2"></path>
                <path d="M27.8354336,25.9702527 C27.8577729,25.9982901 27.9218123,26.021873 27.9050579,26.1138462 C27.8574006,26.1935038 27.8283595,26.1133221 27.7758621,26.1175146 C27.8183068,26.1728033 27.8905373,26.3111561 27.9687249,26.137691 L27.9471303,26.1101777 C28.0018616,25.9540067 28.2021709,25.7530283 28.2241379,25.7802796 C28.0796769,25.8258732 27.976916,25.8662261 27.8354336,25.9702527" id="Fill-67" fill="#38B8C2"></path>
                <path d="M28.1311207,24.2222222 L28.0360862,23.7777778 L27.8688793,24.004322 L27.9697414,23.9924365 C27.9302931,24.2452728 28.053569,24.1908878 28.1311207,24.2222222" id="Fill-69" fill="#38B8C2"></path>
                <polygon id="Fill-71" fill="#38B8C2" points="27.939931 21.0855556 28.1438966 21.1584444 27.8561034 20.8415556"></polygon>
                <polygon id="Fill-73" fill="#38B8C2" points="27.9112414 20.0677778 28.0887586 20.094 27.9811724 19.906"></polygon>
                <path d="M2.97489655,18.9193333 L3.02510345,19.0806667 C3.00986207,19.0042222 2.99282759,18.9553333 2.97489655,18.9193333" id="Fill-75" fill="#38B8C2"></path>
                <path d="M3.0437069,18.0011807 L2.9562931,17.9727363 C3.00425862,18.0265141 3.03967241,18.0487363 3.0437069,18.0011807" id="Fill-77" fill="#38B8C2"></path>
                <path d="M18.2241379,9.14669188 C18.001192,8.98224743 17.751171,8.72758076 17.777823,8.92535854 L17.8467797,9.11824743 C18.0033072,9.08358076 18.1226066,9.1049141 18.2241379,9.14669188" id="Fill-79" fill="#38B8C2"></path>
                <path d="M4.88524138,10.0335556 L4.95427586,10.0922222 C5.01165517,10.026 5.065,9.96422222 5.11475862,9.90777778 C5.04482759,9.946 4.96727586,9.98866667 4.88524138,10.0335556" id="Fill-81" fill="#38B8C2"></path>
                <path d="M4.156,11.0622222 L3.844,10.9377778 C3.91393103,10.9808889 4.0147931,11.0226667 4.156,11.0622222" id="Fill-83" fill="#38B8C2"></path>
                <path d="M2.90093103,25.9103921 L3.09906897,26.0983921 C3.09772414,25.8041699 2.9982069,25.9339477 2.90093103,25.9103921" id="Fill-85" fill="#38B8C2"></path>
                <path d="M27.9749419,12.2222222 C28.0130453,12.1462602 28.0399419,12.077961 28.0587695,12.0156588 C28.067735,11.9803432 28.0753557,11.9636848 28.0802867,11.9170415 C28.0847695,11.8683991 28.0883557,11.8224221 28.0923902,11.7777778 C28.0363557,11.958021 27.9664246,12.013993 27.9310108,12.0832917 C27.8951488,12.1489255 27.893804,12.1982342 27.9749419,12.2222222" id="Fill-87" fill="#38B8C2"></path>
                <path d="M0.940827586,18.9329635 C0.975793103,19.0316302 1.01524138,19.0738524 1.05917241,19.0711858 C1.02555172,18.969408 0.987896552,18.9120747 0.940827586,18.9329635" id="Fill-89" fill="#38B8C2"></path>
                <path d="M27.9811681,11 C27.9618922,11.0690433 27.9520302,11.1322202 27.935444,11.1990072 C27.9681681,11.4359206 27.9941681,11.6886282 27.9820647,12 C28.0649957,11.6895307 28.1165474,11.2865523 27.9811681,11" id="Fill-91" fill="#38B8C2"></path>
                <path d="M17.9733957,33.9894247 C17.9899819,33.9983136 18.0106026,34.0023136 18.025844,34.0125358 C18.0312233,33.9863136 18.0074647,33.9849803 17.9733957,33.9894247" id="Fill-93" fill="#38B8C2"></path>
                <path d="M25.1391897,35.9885278 C25.0728448,36.0005278 24.9630172,36.0005278 24.8608103,36.0031944 C24.910569,36.0165278 24.9948448,36.0151944 25.1391897,35.9885278" id="Fill-95" fill="#38B8C2"></path>
                <path d="M27.993505,16.9635905 C28.0060568,17.1147016 28.0150223,16.9875905 27.993505,16.9635905" id="Fill-97" fill="#38B8C2"></path>
                <path d="M28.0472931,18.0302222 C28.0253276,17.9982222 27.9979828,17.9737778 27.9527069,17.9697778 C27.9997759,17.9826667 28.0293621,18.0031111 28.0472931,18.0302222" id="Fill-99" fill="#38B8C2"></path>
                <path d="M27.0054588,9.98763179 L26.9929071,9.98718734 C27.0103898,10.0249651 27.0077002,10.0174096 27.0054588,9.98763179" id="Fill-101" fill="#38B8C2"></path>
                <path d="M27.9710862,18.0966667 C27.9952931,18.0402222 28.0150172,17.9748889 28.0289138,17.9033333 C28.0141207,17.9348889 27.9952931,17.9935556 27.9710862,18.0966667" id="Fill-103" fill="#38B8C2"></path>
                <path d="M28.0006436,17.9307369 C27.9930229,17.9831813 27.9876436,18.0236258 27.981816,18.0627369 C28.0140919,18.081848 28.0347126,18.0649591 28.0006436,17.9307369" id="Fill-105" fill="#38B8C2"></path>
                <path d="M28.004931,16.8775556 C28.008069,16.9637778 27.9986552,17.0446667 27.9847586,17.1224444 C27.9977586,17.0926667 28.0089655,17.0802222 28.0152414,17.0882222 C28.0134483,17.0437778 28.0103103,16.9811111 28.004931,16.8775556" id="Fill-107" fill="#38B8C2"></path>
                <path d="M3.93897548,35.0102621 C3.94883755,35.0164844 3.960941,35.0200399 3.97169962,35.0289288 C4.12545824,34.9484844 4.05821686,34.9613733 3.93897548,35.0102621" id="Fill-109" fill="#38B8C2"></path>
                <path d="M13.9937241,11.008 C14.0013448,11.0062222 14.0044828,11.0008889 14.0112069,10.9986667 C14.0040345,10.9968889 13.9955172,10.9942222 13.9887931,10.992 L13.9937241,11.008 Z" id="Fill-111" fill="#38B8C2"></path>
                <path d="M13.7758621,11.2222222 C13.9687206,11.0731539 14.0779208,11.0913734 14.2241379,11.1231194 L14.0745893,10.7777778 L13.7758621,11.2222222 Z" id="Fill-113" fill="#38B8C2"></path>
                <g id="Group-117" transform="translate(0.000000, 8.000000)">
                    <mask id="mask-2" fill="white">
                        <use xlink:href="#path-1"></use>
                    </mask>
                    <g id="Clip-116"></g>
                    <path d="M5.41779883,28.6355 L5.30514386,28.5725 C5.55962339,28.503 5.48871111,28.566 5.41779883,28.6355 M28.5075415,7.8415 C28.5417404,7.8995 28.5749333,7.8955 28.6086292,7.871 C28.5472725,7.831 28.5432491,7.7015 28.5608515,7.5545 C28.497483,7.595 28.4532257,7.6695 28.5075415,7.8415 M28.6126526,7.266 C28.6086292,7.2605 28.6061146,7.2575 28.6010854,7.253 C28.6956351,6.9755 28.6584187,7.074 28.6126526,7.266 M5.6395883,2.303 C5.54705029,2.383 5.40321404,2.3435 5.24076959,2.252 C5.35895673,2.2325 5.49172865,2.241 5.6395883,2.303 M2.5098924,7.33 C2.5601848,7.454 2.7176,7.7015 2.57476959,7.7925 C2.29665263,7.651 2.42992749,7.5415 2.5098924,7.33 M2.66630175,13.741 L2.86244211,13.312 C3.1853193,13.83 3.0741731,14.2045 3.34977544,13.802 C2.66630175,13.741 3.27936608,12.1345 2.59740117,12.0745 L2.74123743,11.792 C2.73419649,11.873 2.77443041,11.8855 2.76738947,11.966 C3.09479298,11.416 2.27351813,11.5575 2.37058246,10.8485 C2.42338947,10.6015 2.5224655,10.429 2.60343626,10.5975 L2.4344538,10.0475 C2.44803275,9.887 2.56621988,9.9265 2.55364678,10.086 L2.49882807,9.2465 L2.51894503,9.253 C2.41182222,9.133 2.24585731,8.862 2.17595088,8.729 C2.27351813,8.516 2.24786901,8.836 2.33336608,8.7815 L2.16790409,8.317 C2.34543626,8.1275 2.51643041,8.5125 2.49178713,8.8335 C3.17324912,8.3995 2.31978713,8.448 2.7176,7.511 L2.80460585,7.95 C3.19185731,7.667 3.05154152,7.3245 3.29294503,6.8285 C3.16671111,6.9465 2.68390409,7.822 2.51441871,7.3175 C2.56571696,7.1755 2.59036023,6.988 2.45255906,6.716 C2.69597427,6.7135 2.63612632,6.448 2.62204444,6.115 L2.94391579,6.138 C2.85087485,5.7785 2.68692164,5.807 2.54258246,5.5955 C2.57426667,5.195 2.82371696,5.112 3.03343626,5.0175 C3.08423158,4.376 2.63411462,5.4605 2.57326082,4.701 C2.69597427,4.196 2.56471111,3.6735 2.37209123,3.4345 C2.4827345,3.295 2.56923743,3.5265 2.66127251,3.494 C2.57577544,3.427 2.49027836,3.3455 2.40427836,3.2495 C2.41081637,3.2125 2.48977544,3.268 2.52900351,3.2935 C2.42992749,3.109 2.20763509,3.1205 2.12012632,2.7895 C1.96522573,2.641 2.04569357,2.5635 2.15080468,2.527 C2.48826667,2.661 2.75280468,2.836 2.80209123,2.6115 C2.91776374,2.702 2.86395088,2.8075 2.9504538,2.931 C3.04299181,2.8 3.12798596,2.7525 3.19034854,2.6935 C3.26226667,2.6345 3.29043041,2.564 3.62889825,2.387 L4.15244211,2.597 C3.76770526,2.357 4.25956491,2.073 4.69057076,1.8395 C4.55377544,1.7235 4.4376,1.622 4.35914386,1.5735 L5.04664094,1.402 C5.12962339,1.4545 5.06021988,1.5645 4.94756491,1.698 C4.99433684,1.6715 5.03909708,1.6455 5.07329591,1.621 C5.31972865,1.7395 5.19198596,1.924 5.01596257,2.1025 L4.76802105,1.9055 C4.59853567,2.0995 4.4396117,2.315 4.47481637,2.502 C4.51957661,2.4655 4.60557661,2.4335 4.70012632,2.4155 C4.65536608,2.4685 4.62770526,2.5155 4.64832515,2.5475 C4.67145965,2.581 4.74287485,2.5105 4.85552982,2.4285 L5.01143626,2.785 L5.0501614,2.6435 L5.94938947,2.8665 C6.59262924,2.508 7.15238363,1.9795 8.17382222,1.8325 C7.92085146,2.094 8.11950643,2.2595 8.10592749,2.5695 C7.82680468,2.241 7.31432515,2.7085 6.78524912,2.642 C7.06185731,2.6765 7.00050058,2.824 6.93059415,2.8755 L7.87458246,2.577 C7.85345965,2.8305 8.0747462,2.767 8.32168187,2.872 C8.13509708,2.371 9.02577544,2.5385 9.40950643,2.385 C9.43314386,2.553 9.3416117,2.7245 8.87238363,2.684 C9.38938947,3.061 9.54076959,2.096 10.0482199,2.4165 C9.93355322,2.4205 9.87219649,2.3945 9.82743626,2.48 C10.0944889,2.3305 10.7477871,2.449 10.5943953,2.5955 L10.4797287,2.599 C11.2396468,2.658 12.792676,2.6025 12.9063368,2.177 C12.9133778,2.2325 12.806255,2.69 12.7609918,2.776 L14.1163719,1.345 C13.9971789,1.7105 14.4553427,2.58 13.8251789,2.7865 C14.0057287,2.8385 14.2295298,2.8995 14.6112491,2.7705 C14.4875298,2.7185 14.3034596,2.242 14.4724421,2.209 C14.9351322,2.6155 14.7938105,2.4265 15.3641263,2.773 C15.1790503,2.695 15.3847462,2.122 15.676945,2.14 C15.6316819,2.226 15.7010854,2.7055 15.5944655,2.765 L16.3221965,2.203 C16.140138,2.304 16.2900094,2.6795 16.4524538,2.8385 C16.3775181,2.7285 17.0816117,2.8485 17.2757404,2.793 L16.967448,2.6625 C17.7892257,2.7475 17.7786643,1.872 18.5939041,1.9015 C18.495331,2.0175 18.3504889,2.616 18.7643953,2.687 C18.9545006,2.399 19.6057871,1.302 20.3269801,1.08 L20.4652842,1.2445 L21.0185006,1.057 C20.6739977,1.4905 19.7068749,2.4025 19.1788047,2.7575 C19.4865942,2.8875 19.2648047,2.951 19.7249801,2.9365 C19.8874246,3.091 19.4740211,3.1705 19.3387345,3.1795 L20.4109684,3.2795 C20.3631906,2.943 21.2302316,2.942 21.1889918,2.662 L20.0252257,3.0105 C19.9779509,2.675 20.6986409,2.056 21.4580561,2.1155 C21.650676,2.2495 21.313214,2.714 21.3293076,2.826 C21.4278807,2.7105 22.0499977,2.605 22.1199041,2.687 L21.7975298,2.8665 C22.2204889,2.993 22.4875415,2.4215 22.9954947,2.742 C23.1710152,2.7635 23.5190386,3.175 23.549717,2.976 C23.2635532,2.5925 23.2077287,1.406 23.3983368,1.1175 C23.4596936,1.1435 24.3191906,1.4845 24.5188515,1.674 C24.8080327,1.9745 24.0858339,2.3905 24.3312608,2.649 C24.3423251,2.557 24.501752,2.444 24.568138,2.4075 C24.7522082,2.486 24.4921965,2.692 24.892524,2.6505 C24.9589099,2.3095 25.706255,2.679 25.0816234,2.3625 C25.2767579,2.3135 25.3808632,2.331 25.4935181,2.359 C25.5775064,2.3865 25.6514363,2.425 25.8083485,2.4175 C25.7842082,2.3075 25.8863018,2.12 26.1035649,1.948 C26.314793,1.776 26.6512491,1.6195 26.9052257,1.571 C26.824255,1.6575 26.8433661,1.7705 26.8463836,1.822 C27.0500678,1.83 27.2180444,1.847 27.3618807,1.867 C27.3050503,2.388 27.2205591,2.773 27.2180444,3.2525 C27.135062,3.345 27.0344772,3.641 26.8866175,3.5385 C26.9479743,3.6125 27.0641497,3.6575 27.0721965,3.9015 C26.9243368,4.1235 26.9122667,3.9955 26.8931556,3.8545 C26.8745474,3.6945 26.8478924,3.615 26.6698573,3.7285 C26.8690152,3.7575 26.9449567,4.322 27.0691789,4.6485 C27.2230737,4.5985 27.2381614,4.4095 27.1989333,4.1925 C27.1592023,3.9865 27.0661614,3.703 27.0037988,3.6005 C27.4287696,3.5375 27.8723485,4.1455 28.0689918,4.912 C28.1741029,5.53 27.7943953,5.18 27.8547462,5.287 C27.7808164,6.448 28.5960561,6.276 28.2902784,7.2395 C28.0192023,7.6225 27.7516468,7.2575 27.5570152,7.342 C27.4544187,6.8385 27.7285123,6.569 27.7179509,6.228 L27.5897053,6.648 C27.4996819,6.488 27.4312842,6.152 27.5102433,5.969 C27.2668281,6.2895 27.4634713,7.9295 27.2391673,8.825 C27.3296936,8.9845 27.4237404,9.259 27.5323719,9.129 L27.4941497,8.8455 C27.7124187,8.585 27.7959041,9.379 27.8979977,9.0205 C28.0513895,9.4005 28.2917871,9.826 28.1685708,10.3615 L27.8602784,10.462 C27.9508047,10.4505 28.0438456,10.1125 27.9503018,9.962 C28.0865942,10.185 27.5328749,10.782 27.9362199,11.0265 L28.1499626,10.6515 C28.3053661,11.033 28.6322667,11.505 28.5352023,11.979 C28.8394713,11.763 28.4999977,11.8695 28.8565708,11.5325 C28.4134947,11.825 28.8756819,10.32 28.4094713,10.789 C28.8228749,10.4435 28.5844889,10.1905 28.9375415,9.7385 C28.835448,9.7525 28.7429099,9.8985 28.7932023,9.5005 C28.7635298,9.4825 28.7258105,9.44 28.7036819,9.413 C28.7072023,9.4015 28.7082082,9.397 28.7107228,9.386 L28.6991556,9.408 C28.6840678,9.391 28.6805474,9.3895 28.6946292,9.4165 C28.6503719,9.511 28.597062,9.588 28.5402316,9.6195 C28.3068749,9.422 28.3139158,8.7885 28.193214,8.5745 C28.2414947,8.3385 28.3098924,8.6735 28.4180211,8.5445 L28.2374713,8.2245 C28.4637871,8.193 28.6126526,7.597 28.7454246,8.1535 L28.7549801,7.653 C28.881717,7.358 28.9325123,6.952 28.8369567,6.702 C28.8862433,6.466 28.5870035,6.1055 28.7640327,6.3115 L28.6242199,5.526 L28.6805474,5.5185 C28.6946292,5.131 28.6015883,4.732 28.5553193,4.3195 C28.5321848,4.1055 28.5211205,3.92 28.5412374,3.673 C28.5613544,3.3375 28.6121497,2.9915 28.7142433,2.5895 C28.6574129,2.1715 28.5875064,1.796 28.6513778,1.0405 L28.8470152,0.7275 C28.835448,0.6405 28.8339392,0.53 28.8369567,0.401 C28.266138,0.3835 27.4876117,0.2305 27.1863602,0.399 C27.0968398,0.268 26.8579509,0.196 26.5365825,0.159 C26.3766526,0.1405 26.1961029,0.1315 26.0054947,0.128 C25.9099392,0.128 25.8123719,0.128 25.712793,0.1275 C25.6272959,0.13 25.5397871,0.132 25.4517754,0.1345 C25.0142316,0.1595 24.5480211,0.2385 24.2517988,0.192 L24.2291673,0.446 C23.8217988,0.431 23.4300211,0.5035 22.9240795,0.605 L22.9552608,0.829 C22.5187228,1.013 21.8332374,0.67 21.1427228,0.693 C21.1889918,0.607 21.3645123,0.6295 21.4882316,0.681 C20.6634363,0.175 19.7481146,1.05 18.9997637,0.6805 C18.8136819,0.762 18.6783953,0.7345 18.5476351,0.678 C18.5652374,0.6775 18.5803251,0.6735 18.5939041,0.6665 C18.574793,0.6635 18.5461263,0.663 18.5174596,0.6635 C18.4349801,0.625 18.3504889,0.58 18.2579509,0.5445 C18.336407,0.5985 18.4113427,0.6435 18.4762199,0.6645 C18.3323836,0.669 18.1141146,0.697 17.9003719,0.753 L17.8098456,0.512 C17.7917404,0.5145 17.7786643,0.5165 17.7600561,0.519 C17.5503368,0.43 17.5915766,0.6335 17.7032257,0.8145 C17.5961029,0.854 17.4970269,0.9015 17.4205825,0.9595 C17.2500912,0.571 16.8598222,1.0905 16.6274713,0.676 C16.4831322,0.878 15.5522199,0.828 15.439062,1.2535 C15.4315181,1.198 15.3681497,1.1715 15.4838222,1.168 C15.2454363,1.1195 15.0070503,1.0715 14.7938105,1.191 L14.6922199,0.885 L14.1721965,1.2965 C13.8558573,1.11 13.7250971,1.0015 14.0389216,0.766 C13.2810152,1.1285 13.4238456,0.9025 12.7796,1.2615 L12.8107813,1.0635 C12.5804421,1.0715 12.2123018,1.3365 12.0729918,1.173 C11.5579977,0.7965 9.52266433,1.1205 8.19997427,0.771 C8.4564655,1.354 7.58540117,0.51 7.53259415,0.9615 C7.45564678,0.8235 7.27157661,0.746 7.4853193,0.626 C6.81039532,0.7615 6.47092164,0.4075 6.00471111,0.7885 C5.92776374,0.65 6.14955322,0.5865 6.08065263,0.5045 C6.02633684,0.534 5.86640702,0.6245 5.79599766,0.542 C5.72709708,0.46 5.89457076,0.4265 6.00169357,0.366 C5.31168187,0.3895 5.24177544,0.8145 5.19198596,1.213 C4.84195088,1.0245 4.66793918,1.051 4.41597427,1.3125 C4.29426667,1.182 4.09058246,1.0455 4.51957661,0.9985 C4.39937778,0.9895 4.0307345,0.9415 3.68924912,0.936 C3.40509708,0.9305 2.88054737,0.9675 2.90971696,1.127 C2.7930386,1.046 2.44400936,1.1035 2.37661754,1.14 C1.6478807,1.121 1.55232515,1.0925 0.862816374,1.1225 L1.10774035,1.175 C1.13037193,1.312 1.08712047,1.3625 0.989553216,1.3725 C1.0081614,1.578 0.893997661,1.719 0.923670175,2.09 L0.883939181,2.048 C0.744126316,2.5875 0.777319298,2.772 0.806488889,2.9085 C0.835155556,3.0515 0.858792982,3.191 0.698863158,3.788 L0.940266667,3.736 C1.45928421,3.8255 0.633985965,4.589 0.832640936,5.148 L0.969939181,4.9465 C1.14797427,5.2515 0.264839766,5.8 0.199962573,6.1065 C0.154699415,6.173 0.127038596,6.0005 0.093845614,5.9075 C-0.21142924,6.71 0.410184795,6.0115 0.483611696,6.6095 C0.313120468,6.72 0.0500912281,6.4675 0.0184070175,6.87 C-0.119394152,7.0705 0.571623392,8.0375 0.245225731,8.587 C0.376488889,8.466 0.507249123,8.3455 0.606325146,8.6235 C0.652594152,9.0495 0.109436257,9.775 0.523845614,10.1595 C0.487635088,10.2135 0.453436257,10.234 0.420746199,10.2365 C0.527366082,10.562 0.598278363,11.294 0.822582456,11.49 C-0.0102596491,11.791 1.22793918,13.514 0.459471345,13.507 L0.500711111,14.508 L0.421752047,14.482 C0.371459649,15.122 0.555529825,15.348 0.740102924,15.573 C0.68779883,15.721 0.615880702,15.613 0.575646784,15.6005 C0.420746199,16.536 0.453436257,16.629 0.836664327,17.413 L0.587214035,17.4945 C0.73205614,17.707 0.195939181,18.8465 0.48662924,19.7635 C0.458465497,19.755 0.410184795,19.736 0.374980117,19.663 C0.667681871,20.695 -0.316540351,22.1335 0.591237427,22.5115 L0.815038596,23.1925 C0.885447953,22.3115 1.20882807,23.3235 1.36020819,22.9615 C1.4130152,23.3075 1.08611462,23.857 1.03934269,23.431 L1.08510877,23.3645 C0.611354386,23.2085 0.917132164,24.4595 0.594757895,24.4355 C0.598781287,24.7105 0.594757895,24.984 0.586711111,25.256 C0.573635088,25.5765 0.560559064,25.8965 0.547483041,26.215 C0.507752047,27.032 0.468523977,27.843 0.42979883,28.643 C1.31192749,28.689 2.23831345,28.729 3.16922573,28.736 C3.07920234,28.6145 3.0007462,28.492 2.93486316,28.3705 L3.6153193,28.3915 C3.76468772,28.4765 3.81548304,28.6775 3.40962339,28.6625 C3.62336608,28.8695 4.09058246,28.489 4.10265263,28.409 C4.89878129,28.5575 3.79184561,28.8355 4.03576374,28.8445 L4.36719064,28.817 L4.29275789,28.7745 C4.5613193,28.625 4.58495673,28.4665 5.07329591,28.485 C5.38259415,28.558 5.23221988,28.71 5.35392749,28.7245 C5.35292164,28.75 5.3941614,28.7625 5.54051228,28.735 L6.2581848,28.766 L5.97151813,28.4775 C6.28936608,28.335 6.64593918,28.4925 6.3150152,28.1655 C6.80134269,28.6695 8.99258246,28.3465 9.2913193,28.503 C9.73690994,28.2925 10.1769684,28.296 10.7216351,28.3215 C10.5858456,28.2615 10.5048749,27.937 10.9751088,27.9765 C10.8031088,28.6465 11.8356117,28.2675 12.2153193,28.7495 C11.8758456,28.4295 13.5515883,28.6705 13.0184889,28.2165 C13.4112725,28.271 13.0426292,28.4675 13.3403602,28.625 C14.2732842,28.3655 15.3973193,28.7935 16.5510269,28.706 C16.5686292,28.618 16.3755064,28.4835 16.622945,28.353 L17.231986,28.7925 C17.4598105,28.7495 17.4417053,28.285 17.8581263,28.59 C17.7992842,28.516 17.7117754,28.4045 17.8646643,28.3765 C20.1243018,28.805 22.4830152,28.0255 24.7778573,28.8305 C24.4670503,28.66 24.674255,28.6435 24.912138,28.637 C24.7572374,28.596 24.9156585,28.4195 24.8849801,28.3005 L25.8455649,28.6315 C26.0210854,28.301 26.8760561,28.609 26.976138,28.293 L26.6723719,28.35 C27.0767228,27.9765 26.1060795,27.5205 26.1649216,27.0415 C25.7122901,27.466 24.9704772,26.413 24.2266526,27.0205 C24.0626994,26.9225 24.3669684,26.866 24.2789567,26.755 C24.0903602,26.96 23.8630386,27.003 23.4410854,26.911 L23.4888632,26.86 C22.3039743,26.91 21.7960211,26.708 20.4652842,26.573 L20.5633544,26.81 C20.2776936,26.7785 20.2173427,26.704 20.0835649,26.6445 C19.7551556,27.0035 20.8867345,26.665 20.5879977,27.061 C20.2082901,26.579 18.5707696,27.0535 18.3142784,26.506 C17.8742199,26.503 18.4430269,26.78 18.0034713,26.777 L17.886793,26.6285 L17.7756468,26.8195 C17.4869684,26.788 17.3416234,26.603 17.3305591,26.4775 C17.4004655,26.492 17.529717,26.442 17.6046526,26.4315 C17.2304772,26.257 16.5500211,26.491 16.4217754,26.434 L16.8442316,26.5255 C15.6432491,26.664 14.1772257,26.4695 13.0169801,26.771 L13.1049918,26.883 C12.2188398,27.0895 12.3953661,26.76 11.4227111,26.8555 L11.4584187,26.829 C11.2632842,26.94 11.0032725,26.9965 10.7372257,26.9835 C10.9826526,26.853 10.2750386,26.729 10.5974129,26.5845 C9.63682807,26.8065 10.1221497,26.759 9.48796257,27.1745 L9.3416117,26.989 C9.12485146,27.1565 9.10724912,27.245 8.62092164,27.293 C9.01974035,27.134 8.31112047,27.0105 8.75771696,26.8 C7.73778713,26.3945 7.24391579,27.2095 6.77619649,26.6165 C6.30847719,27.1295 7.65832515,26.9015 7.39630175,27.011 C7.61557661,27.179 7.00955322,27.395 6.68969357,27.3435 C6.36430175,27.332 6.13597427,26.687 5.31721404,26.6965 C5.3981848,26.699 5.40421988,26.66 5.48519064,26.6625 C5.17840702,26.5315 4.88419649,26.8395 4.50851228,26.627 C4.29778713,26.9375 4.0201731,26.609 3.95982222,27.005 L4.71119064,26.9135 C4.49795088,26.965 4.29175205,27.107 4.05085146,27.2075 C3.93065263,27.258 3.80140117,27.298 3.65857076,27.3115 C3.52127251,27.3245 3.34021988,27.3115 3.21951813,27.2555 C3.24516725,27.2155 3.2964655,27.1695 3.35379883,27.1255 C3.4307462,27.082 3.51926082,27.0415 3.59067602,27.012 C3.36234854,26.8955 3.23661754,27.0895 3.11591579,26.9695 C3.14458246,26.8705 3.19135439,26.8155 3.2461731,26.784 C3.27333099,26.7685 3.30350643,26.759 3.33519064,26.752 C3.37089825,26.7455 3.4558924,26.7425 3.51926082,26.74 C3.79687485,26.7305 4.12427836,26.7325 4.35260585,26.5815 C4.13182222,26.414 3.48908538,26.868 3.71841871,26.439 C3.5650269,26.712 3.30199766,26.695 3.24114386,26.6615 C3.12597427,26.628 3.0595883,26.5785 2.81064094,26.787 L2.94844211,26.5495 C2.89664094,26.587 2.74425497,26.699 2.66378713,26.693 C2.78650058,26.5905 2.89261754,26.488 2.98314386,26.3855 C2.77644211,26.5555 2.74827836,26.4085 2.76336608,26.323 C2.80963509,26.2305 2.83830175,26.173 2.78800936,26.1685 C2.79002105,26.248 2.76236023,26.31 2.7176,26.3685 C2.67032515,26.465 2.38164678,26.639 2.39572865,26.758 C2.35750643,26.7705 2.32230175,26.782 2.29112047,26.792 C2.1890269,26.623 2.35247719,26.3965 2.52799766,26.2275 C2.70351813,26.0425 2.89060585,25.923 2.83578713,25.7895 C2.86998596,25.8125 2.6924538,26.012 2.58181053,25.959 C2.6064538,25.9055 2.64165848,25.846 2.68641871,25.7995 C2.70854737,25.7755 2.73319064,25.757 2.76034854,25.738 C2.78750643,25.685 2.81667602,25.638 2.84836023,25.602 C2.79806784,24.7815 2.60243041,25.728 2.45557661,25.379 C2.74626667,25.0995 2.33738947,24.976 2.24384561,24.616 L2.48675789,24.614 C2.64266433,23.679 1.9813193,24.366 2.16941287,23.5245 L2.50586901,23.88 L2.41886316,23.441 L2.69496842,23.5315 C2.49027836,23.054 2.54308538,22.906 2.62053567,22.438 C2.44954152,22.5465 2.18047719,22.377 2.17243041,21.963 C2.31676959,21.6805 2.40327251,22.121 2.36907368,21.534 C2.51995088,21.6665 2.71055906,21.8115 2.48776374,22.067 C2.56621988,22.0935 2.64014971,22.198 2.7176,22.2245 C2.88356491,21.9205 2.75582222,21.4605 2.7533076,21.248 C2.74425497,21.3295 2.73117895,21.4275 2.69698012,21.4775 L2.36052398,20.627 C2.45155322,20.4925 2.52498012,20.599 2.59689825,20.7045 C2.57024327,20.532 2.45859415,20.4125 2.43747135,20.159 C2.63512047,20.225 2.83830175,20.209 2.93184561,20.568 L2.71257076,19.7575 C2.79806784,19.703 2.94844211,19.3415 3.02086316,19.4465 C3.1370386,18.997 2.63813801,18.344 2.7910269,17.748 C2.75280468,17.717 2.71659415,17.655 2.68792749,17.5285 C2.73268772,16.9685 2.97509708,16.472 2.70402105,15.808 L3.05807953,15.4315 C2.9776117,14.912 2.61248889,15.9415 2.47871111,15.076 C2.36655906,14.463 2.7804655,14.847 2.8790386,14.6325 C2.70100351,14.3275 2.33839532,13.7975 2.62606784,13.2345 C2.6924538,13.421 2.64014971,13.567 2.66630175,13.741" id="Fill-115" fill="#38B8C2" mask="url(#mask-2)"></path>
                </g>
                <path d="M5.03819515,11.0584444 C5.00681584,11.022 4.99785032,10.982 4.99067791,10.9415556 C4.94674687,10.9775556 4.94585032,11.0193333 5.03819515,11.0584444" id="Fill-118" fill="#38B8C2"></path>
                <path d="M2.98318966,25.9826667 L2.9805,26 C2.9935,26.0097778 3.00694828,26.0146667 3.0195,26.0173333 L2.98318966,25.9826667 Z" id="Fill-120" fill="#38B8C2"></path>
                <path d="M24.1026614,11.0553333 C23.9968683,11.0246667 23.9372476,10.9855556 23.8977993,10.9446667 C23.8919717,10.9971111 23.9403855,11.0415556 24.1026614,11.0553333" id="Fill-122" fill="#38B8C2"></path>
                <path d="M28.063431,19.1637778 L28.0073966,18.8362222 C28.0177069,18.9944444 27.9706379,19.0508889 27.936569,19.1308889 C27.9867759,19.1237778 28.0598448,19.0615556 28.063431,19.1637778" id="Fill-124" fill="#38B8C2"></path>
                <path d="M26.9347759,22.9775901 C26.9616724,23.0251457 26.9379138,23.0793679 26.9643621,23.126479 L27.0652241,23.1135901 C27.0585,22.9095901 26.9778103,22.766479 26.9347759,22.9775901" id="Fill-126" fill="#38B8C2"></path>
                <path d="M28.020452,18.7777778 C27.838452,18.80304 27.8998658,19.0008563 27.9339348,19.2222222 C27.9334865,19.2085207 27.9316934,19.1961036 27.9339348,19.1828302 C28.1885555,19.2479127 28.1042796,19.012417 28.020452,18.7777778" id="Fill-128" fill="#38B8C2"></path>
                <path d="M27.972729,19.891808 C27.9812463,19.9624747 27.985729,20.0349191 27.9772118,20.1042524 C28.0789704,20.1309191 27.9982807,20.0180302 27.972729,19.891808" id="Fill-130" fill="#38B8C2"></path>
                <path d="M27.8997074,17.0363099 C27.8530867,17.1451988 28.1328108,17.1047544 28.0583971,17.1660877 C28.2897074,17.287421 27.7782246,16.4407544 27.8997074,17.0363099" id="Fill-132" fill="#38B8C2"></path>
                <polygon id="Fill-134" fill="#38B8C2" points="26.8877069 19.1055556 27.1122931 19.0228889 26.9311897 18.8944444"></polygon>
                <path d="M27.013189,17.7779996 L26.9508786,18.1283664 C26.9885338,18.1228455 27.0109476,18.1674376 27.0275338,18.2222222 C27.0351545,18.0064812 27.0795338,17.7695059 27.013189,17.7779996" id="Fill-136" fill="#38B8C2"></path>
                <path d="M26.9820878,18.8524444 C26.977605,18.9702222 26.982536,19.0822222 27.0192947,19.1475556 C27.0170533,19.084 27.0098809,18.9466667 26.9820878,18.8524444" id="Fill-138" fill="#38B8C2"></path>
                <polygon id="Fill-140" fill="#38B8C2" points="26.9683966 19.1837778 27.0150172 19.0753333 27.0316034 18.8162222"></polygon>
                <path d="M27.0835907,13.1973435 L27.019039,12.7968991 C26.9423838,12.7560102 26.8953148,12.8653435 26.9257976,13.0142324 C26.9795907,13.1102324 27.0091769,13.2586768 27.0835907,13.1973435" id="Fill-142" fill="#38B8C2"></path>
                <path d="M26.9683966,15.0942222 C27.0150172,14.9862222 27.0652241,14.9786667 27.1391897,14.9177778 L26.8608103,14.9057778 L26.9683966,15.0942222 Z" id="Fill-144" fill="#38B8C2"></path>
                <path d="M27.1029343,13.0676233 C27.0253826,13.0276233 26.8810377,12.4867344 26.8985205,12.9938455 C26.9751757,13.0347344 27.0392791,13.4356233 27.1029343,13.0676233" id="Fill-146" fill="#38B8C2"></path>
                <polygon id="Fill-148" fill="#38B8C2" points="23.9486724 10.2222222 24.0513276 10.2187568 24.0365345 9.77777778"></polygon>
                <path d="M17.8113962,11.1636296 C18.1613702,11.2720741 17.8944576,10.8845185 18.2112727,11.0200741 C18.2933491,10.912963 17.9525677,10.9094074 18.0369423,10.816963 C17.825185,10.9298519 17.7142177,10.8658519 17.8113962,11.1636296" id="Fill-150" fill="#38B8C2"></path>
                <path d="M17.9264828,11.0342222 C17.9726552,11.0164444 18.0215172,10.9946667 18.0735172,10.9657778 C17.9901379,10.9937778 17.9506897,11.0155556 17.9264828,11.0342222" id="Fill-152" fill="#38B8C2"></path>
                <g id="Group-156" transform="translate(25.775862, 36.777778)">
                    <mask id="mask-4" fill="white">
                        <use xlink:href="#path-3"></use>
                    </mask>
                    <g id="Clip-155"></g>
                    <polygon id="Fill-154" fill="#38B8C2" mask="url(#mask-4)" points="0.12625 0.29535 0.383875 0.37485 0.217375 0.2466"></polygon>
                </g>
                <path d="M26.871569,35.8557778 L26.9437414,36.1442222 L27.128431,35.8833333 C27.0593966,35.8957778 26.9244655,35.9206667 26.871569,35.8557778" id="Fill-157" fill="#38B8C2"></path>
                <path d="M3.08158621,14.8922222 L3.01165517,14.8691111 C2.93589655,14.9162222 2.93006897,14.9877778 2.91841379,15.1308889 L3.08158621,14.8922222 Z" id="Fill-159" fill="#38B8C2"></path>
                <polygon id="Fill-161" fill="#38B8C2" points="3.1252931 19.0046667 3.13156897 18.9335556 2.86843103 19.0664444"></polygon>
                <path d="M3.07163107,23.2172656 C3.08238969,23.0790046 3.02411383,22.9169056 3.03532073,22.7777778 C3.08238969,23.0790046 2.74394142,23.2545397 3.07163107,23.2172656" id="Fill-163" fill="#38B8C2"></path>
                <polygon id="Fill-168" fill="#38B8C2" points="38.0215172 2.94422222 37.9784828 2.87844444 38.0062759 3.12155556"></polygon>
                <path d="M37.7758621,3.20007626 C38.0471014,3.31066234 37.9699525,2.97322447 38.1567341,2.93246464 L38.2241379,2.95351275 L38.1043541,2.77777778 C37.9947214,2.91843257 37.930972,3.16098693 37.7758621,3.20007626" id="Fill-170" fill="#38B8C2"></path>
                <path d="M36.9423966,2.99794513 C37.0562586,3.05838957 36.9406034,3.15527846 37.0576034,2.93305624 C37.0392241,2.9326118 37.0307069,2.92994513 37.0186034,2.92816735 C37.0056034,2.94550068 36.9845345,2.96683402 36.9423966,2.99794513" id="Fill-172" fill="#38B8C2"></path>
                <path d="M37.0142009,3.0209961 C37.080994,2.93744054 36.8900285,3.0009961 37.0142009,3.0209961" id="Fill-174" fill="#38B8C2"></path>
                <path d="M36.0834339,4.098 L36.098227,3.92066667 C36.0247098,3.89222222 35.9265374,3.97177778 35.9198132,3.902 C35.8651236,4.04777778 35.9390891,4.07577778 36.0834339,4.098" id="Fill-176" fill="#38B8C2"></path>
                <path d="M36.0018868,4.04459119 L36.0175765,3.9597023 C35.9861972,3.94814674 35.9651282,3.95481341 36.0018868,4.04459119" id="Fill-178" fill="#38B8C2"></path>
                <path d="M35.9953583,3.89454261 L35.9621859,4.07409816 C36.0137376,4.09409816 36.0908411,4.16298705 35.9845997,3.99809816 C36.0446687,4.0714315 35.9993928,3.98787594 35.9953583,3.89454261" id="Fill-180" fill="#38B8C2"></path>
                <path d="M36.8765714,3.99846289 C36.981468,3.98824067 37.0836749,3.94379623 37.0675369,4.12112956 C37.2199507,3.89668512 37.0285369,3.77268512 36.8765714,3.99846289" id="Fill-182" fill="#38B8C2"></path>
                <path d="M37.9385358,4.076 L38.0788462,4.06311111 L38.0631565,3.924 C38.0707772,3.99288889 37.8605358,4.01244444 37.9385358,4.076" id="Fill-184" fill="#38B8C2"></path>
                <path d="M35.8751552,3.93 C35.9186379,3.98244444 36.0396724,4.01844444 36.1105,4.07 L36.1248448,3.94155556 C36.0540172,3.94866667 35.9536034,3.99311111 35.8751552,3.93" id="Fill-186" fill="#38B8C2"></path>
                <path d="M35.9847017,4.904 L35.9636327,5.096 C36.0685293,5.00444444 36.0456672,4.94844444 35.9847017,4.904" id="Fill-188" fill="#38B8C2"></path>
                <polygon id="Fill-190" fill="#38B8C2" points="37.0154655 4.15666667 37.011431 3.80511111 36.9845345 4.19488889"></polygon>
                <polygon id="Fill-192" fill="#38B8C2" points="35.0217414 5.03311111 34.9670517 4.86244444 35.0329483 5.13755556"></polygon>
                <path d="M34.1356316,5.00733333 C34.0849764,4.87133333 33.9128385,4.92244444 33.9016316,4.818 C33.8455971,4.91133333 33.864873,5.05355556 33.8819075,5.182 C33.900735,5.08022222 33.9751488,5.02244444 34.1356316,5.00733333" id="Fill-194" fill="#38B8C2"></path>
                <path d="M34.0082252,6.09977778 C34.0153977,6.04688889 34.0050873,5.97622222 33.9956735,5.90022222 C33.9858115,5.954 33.9858115,6.01666667 34.0082252,6.09977778" id="Fill-196" fill="#38B8C2"></path>
                <path d="M35.1129655,5.00506115 C35.0744138,4.98595003 34.9798276,4.92995003 34.8870345,4.96195003 L35.0685862,5.04772781 C35.0824828,5.03439448 35.0977241,5.01972781 35.1129655,5.00506115" id="Fill-198" fill="#38B8C2"></path>
                <path d="M35.052,4.95844444 L35.0457241,4.95577778 C34.9968621,5.00022222 34.9623448,5.03133333 34.948,5.04422222 C34.961,5.03355556 34.991931,5.00777778 35.052,4.95844444" id="Fill-200" fill="#38B8C2"></path>
                <path d="M35.0017197,4.99170336 L34.9909611,5.00237002 C35.0084438,5.01081447 35.0156162,5.01259225 35.0017197,4.99170336" id="Fill-202" fill="#38B8C2"></path>
                <path d="M35.8926379,4.83314516 C35.9083276,4.97181183 35.8621552,5.18825627 36.1073621,5.16514516 C36.0562586,5.02825627 35.9163966,5.04203405 35.8926379,4.83314516" id="Fill-204" fill="#38B8C2"></path>
                <path d="M35.9273793,5.10977778 L36.0726207,5.01955556 C36.0336207,4.98755556 35.9592069,4.95955556 35.9515862,4.89022222 L35.9273793,5.10977778 Z" id="Fill-206" fill="#38B8C2"></path>
                <polygon id="Fill-208" fill="#38B8C2" points="36.0159138 5.05 36.0266724 4.95 35.9733276 4.98377778"></polygon>
                <path d="M34.9679483,5.89288175 C34.9800517,6.00088175 34.9316379,6.06265952 34.881431,6.13554841 C34.9733276,6.0924373 35.0549138,6.03510397 35.118569,5.96754841 C35.0836034,5.91732619 35.0325,5.81465952 34.9679483,5.89288175" id="Fill-210" fill="#38B8C2"></path>
                <path d="M34.9937104,4.98984297 L34.9910207,5.00850963 C35.0094,5.01250963 35.0188138,5.01028741 34.9937104,4.98984297" id="Fill-212" fill="#38B8C2"></path>
                <path d="M33.9825172,6.99888889 C33.9932759,7.00288889 34.0062759,7.00777778 34.0174828,7.01222222 L33.9955172,6.98777778 L33.9825172,6.99888889 Z" id="Fill-214" fill="#38B8C2"></path>
                <path d="M34.9861471,6.07317939 C35.0619057,6.04651272 35.0565264,5.98384606 35.041285,5.91495717 C35.0188712,5.96606828 34.989285,6.01540161 34.9493885,6.0602905 C34.9650781,6.08295717 34.9771816,6.09584606 34.9861471,6.07317939" id="Fill-216" fill="#38B8C2"></path>
                <path d="M33.9215905,6.01544187 C33.9762802,6.01544187 34.029625,6.00833076 34.0825215,5.99721965 C34.0134871,5.98255298 33.8937974,5.97233076 33.9215905,6.01544187" id="Fill-218" fill="#38B8C2"></path>
                <path d="M35.013366,5.00890207 C35.013366,5.00401318 35.013366,4.99956874 35.0142626,4.99556874 C34.9680902,4.98445763 34.9855729,4.99601318 35.013366,5.00890207" id="Fill-220" fill="#38B8C2"></path>
                <path d="M34.9729191,4.92622222 C34.967988,4.97155556 34.9827811,5.02444444 34.993988,5.07377778 C35.0123673,5.032 35.0249191,4.98933333 35.028057,4.94488889 C35.0123673,4.94177778 34.9908501,4.93466667 34.9729191,4.92622222" id="Fill-222" fill="#38B8C2"></path>
                <path d="M34.1492177,7.9217356 C34.0829851,7.80373074 34.0874006,7.57866991 34.224036,7.58961882 C34.2301687,7.40227088 33.9581244,7.10989457 33.7758621,7 C33.8048082,7.05109489 33.833509,7.09529603 33.8141298,7.26804542 C33.8742298,7.28994323 34.0405472,7.16869424 34.0530578,7.35888078 C34.0086574,7.55839416 33.9615587,7.43755069 33.8847779,7.44890511 C34.0064497,7.52635848 33.9100444,7.83008921 34.0577186,8 L34.0829851,7.80373074 C34.104572,7.8325223 34.1111953,7.92822384 34.1492177,7.9217356" id="Fill-224" fill="#38B8C2"></path>
                <path d="M34.1393236,6.93733333 L34.1689098,6.87377778 C34.0940478,6.90844444 34.0048409,6.9 33.8340478,6.87911111 C33.8210478,7.01911111 33.8528754,7.08044444 33.8909788,7.12622222 L34.1357374,6.90266667 L34.1393236,6.93733333 Z" id="Fill-226" fill="#38B8C2"></path>
                <path d="M34.9496406,5.89393537 C35.038041,6.02886233 34.9957297,6.16626826 35.1812195,6.22222222 C35.2869977,6.10075255 35.1619527,6.05506861 35.1778195,5.94174413 C35.0240632,6.15174856 35.1645972,5.83089863 34.9647518,5.90455954 C34.9806186,5.85073041 35.0066853,5.81283754 35.0327521,5.77777778 C34.9851519,5.7979637 34.935285,5.81425409 34.8831514,5.8252324 L34.8944848,5.82771138 L34.8952404,5.82629482 L34.8967515,5.82806552 C34.9197961,5.83302346 34.9315072,5.83833555 34.9137516,5.8397521 C34.9145071,5.84187694 34.9122405,5.84577247 34.9122405,5.84577247 C34.9277294,5.86170872 34.9390628,5.87764498 34.9488851,5.89358123 C34.8714403,5.9250996 34.9099738,5.87481186 34.9122405,5.84577247 L34.8967515,5.82806552 L34.8944848,5.82771138 L34.7758621,6.06888004 C34.8317734,6.04444444 34.877107,5.99238601 34.9496406,5.89393537" id="Fill-228" fill="#38B8C2"></path>
                <path d="M37.0199483,5.00556367 C37.0006724,5.00111923 36.9912586,4.9917859 36.9800517,4.98245256 C36.9836379,5.01356367 36.9899138,5.03045256 37.0199483,5.00556367" id="Fill-230" fill="#38B8C2"></path>
                <path d="M36.12016,5.10771702 C36.1174056,5.0726059 36.084353,5.00638368 36.1349648,4.96549479 C36.2017586,4.95705035 36.1866095,5.02816146 36.2241379,5.0686059 C36.2193178,5.00105035 36.229991,4.85927257 36.1022565,4.89927257 L36.1053552,4.93349479 C36.0006886,4.98149479 35.7789608,4.93793924 35.7758621,4.90371702 C35.8929234,4.99438368 35.9800307,5.05438368 36.12016,5.10771702" id="Fill-232" fill="#38B8C2"></path>
                <path d="M36.0051552,5.864 L35.8926379,6.12088889 L36.1073621,6.136 L36.0293621,6.07288889 C36.1616034,5.99022222 36.0490862,5.92977778 36.0051552,5.864" id="Fill-234" fill="#38B8C2"></path>
                <polygon id="Fill-236" fill="#38B8C2" points="34.0625345 7.01066667 33.9374655 6.84666667 34.0428103 7.15333333"></polygon>
                <polygon id="Fill-238" fill="#38B8C2" points="33.0605172 7.06022222 32.9394828 6.93044444 32.9556207 7.06955556"></polygon>
                <path d="M20.0081711,23.9546667 L19.9915849,24.0453333 C20.0054814,24.008 20.0095159,23.9795556 20.0081711,23.9546667" id="Fill-240" fill="#38B8C2"></path>
                <path d="M21.0271207,23.0327357 L20.9728793,22.9638468 C20.9903621,23.0154024 21.0087414,23.0469579 21.0271207,23.0327357" id="Fill-242" fill="#38B8C2"></path>
                <path d="M27.1819127,13.9669472 C26.9833265,13.9371695 26.7085334,13.8553917 26.8636369,13.9802806 L27.0294989,14.0869472 C27.0586369,14.0056139 27.1160162,13.9762806 27.1819127,13.9669472" id="Fill-244" fill="#38B8C2"></path>
                <path d="M23.9760172,19.0748889 C23.9970862,19.0797778 24.0199483,19.0851111 24.0414655,19.0908889 C24.0118793,19.026 23.9845345,18.9651111 23.9585345,18.9091111 C23.9639138,18.9602222 23.9697414,19.0162222 23.9760172,19.0748889" id="Fill-246" fill="#38B8C2"></path>
                <path d="M24.0972759,18.9873519 L23.9027241,19.0109075 C23.9578621,19.0162408 24.0215172,19.0095742 24.0972759,18.9873519" id="Fill-248" fill="#38B8C2"></path>
                <path d="M18.9274795,26.8802222 L19.0292381,27.1197778 C19.1431001,26.8851111 19.0050312,26.9446667 18.9274795,26.8802222" id="Fill-250" fill="#38B8C2"></path>
                <path d="M31.113147,9.95111111 C30.9907676,9.97066667 30.9141125,10.0057778 30.8603194,10.0488889 C31.0225952,10.0386667 31.2099745,10.0835556 31.113147,9.95111111" id="Fill-252" fill="#38B8C2"></path>
                <path d="M18.9788329,22.9357778 C18.9716604,22.994 18.9869018,23.0357778 19.019626,23.0642222 C19.0285915,23.006 19.0205225,22.9606667 18.9788329,22.9357778" id="Fill-254" fill="#38B8C2"></path>
                <path d="M29.9061825,10.1028767 C29.9326308,10.1033212 29.9510101,10.0975434 29.9747687,10.0962101 C30.0003204,10.0219878 30.0303549,9.95176562 30.0998377,9.89709895 C29.9792515,9.90376562 29.8734584,9.9415434 29.9061825,10.1028767" id="Fill-256" fill="#38B8C2"></path>
                <path d="M10.0074915,23.0171111 C10.0074915,23.0051111 10.0030087,22.9953333 10.0043535,22.9828889 C9.9846294,23.0002222 9.99225009,23.0091111 10.0074915,23.0171111" id="Fill-258" fill="#38B8C2"></path>
                <path d="M8.94687931,18.9593333 C8.97825862,18.9726667 9.01591379,19.0086667 9.05312069,19.0406667 C9.0455,19.0148889 9.01546552,18.9877778 8.94687931,18.9593333" id="Fill-260" fill="#38B8C2"></path>
                <path d="M31.9921239,8.01660818 C32.0333653,7.9548304 31.9840549,7.99394151 31.9921239,8.01660818" id="Fill-262" fill="#38B8C2"></path>
                <path d="M32.975569,7.95755556 C32.9813966,7.98377778 32.9935,8.01088889 33.024431,8.04244444 C32.9948448,8.00644444 32.9800517,7.97888889 32.975569,7.95755556" id="Fill-264" fill="#38B8C2"></path>
                <path d="M30.9901596,10.9947521 C30.9901596,10.9947521 30.9870216,10.9974188 30.9852285,10.9987521 C31.0278147,11.0089743 31.0197458,11.0067521 30.9901596,10.9947521" id="Fill-266" fill="#38B8C2"></path>
                <path d="M33.0531207,7.98577778 C33.0168103,7.98933333 32.9805,7.99866667 32.9468793,8.01422222 C32.9683966,8.01333333 33.001569,8.00577778 33.0531207,7.98577778" id="Fill-268" fill="#38B8C2"></path>
                <path d="M32.9710862,8.02726869 C32.9943966,8.01393535 33.0118793,8.00326869 33.0289138,7.99349091 C33.011431,7.96504646 32.9908103,7.95704646 32.9710862,8.02726869" id="Fill-270" fill="#38B8C2"></path>
                <path d="M31.9520345,8.04044444 C31.978931,8.008 32.0121034,7.98622222 32.0479655,7.96844444 C32.0286897,7.96977778 32.0165862,7.96666667 32.0143448,7.95955556 C32.0008966,7.97644444 31.9825172,8.00088889 31.9520345,8.04044444" id="Fill-272" fill="#38B8C2"></path>
                <path d="M15.0405509,27.0146667 C15.0387578,27.0053333 15.0351716,26.9968889 15.034275,26.9853333 C14.9145853,26.988 14.9549302,27.0057778 15.0405509,27.0146667" id="Fill-274" fill="#38B8C2"></path>
                <path d="M28.0063099,17.0062222 C28.0076547,17.0022222 28.0049651,16.9973333 28.0054133,16.9937778 L27.9933099,16.9968889 L28.0063099,17.0062222 Z" id="Fill-276" fill="#38B8C2"></path>
                <path d="M27.1659092,17.2222222 C27.070003,17.0451514 27.1329414,17.0261911 27.2241379,17.0069093 L26.7758621,16.7777778 L27.1659092,17.2222222 Z" id="Fill-278" fill="#38B8C2"></path>
                <path d="M15.2584315,25.7366328 L15.2569497,25.8190849 C15.1221081,25.7916009 15.1878001,25.7671151 15.2584315,25.7366328 M32.511737,8.53161167 C32.5063039,8.48863659 32.4806197,8.46714905 32.4485146,8.45265746 C32.479138,8.50812529 32.4406118,8.55659717 32.3803529,8.59657399 C32.43913,8.62555718 32.4944496,8.62905515 32.511737,8.53161167 M32.2489688,8.66203602 L32.2534141,8.67452877 C32.0958519,8.70800935 32.154629,8.69851486 32.2489688,8.66203602 M24.6499276,19.3313478 C24.6770935,19.4182974 24.6025108,19.4412841 24.4844626,19.4357872 C24.508171,19.3808191 24.5575636,19.3408423 24.6499276,19.3313478 M21.9056785,23.1461352 C21.9017271,23.2245897 21.9343262,23.4179776 21.8019542,23.3525155 C21.6488373,23.1141538 21.7797275,23.1661236 21.9056785,23.1461352 M20.0228352,25.4657898 L20.288567,25.4453017 C20.3913034,25.824082 20.2100329,25.8720542 20.5261451,25.9145296 C20.0183898,25.4642907 20.9277064,25.3248716 20.4510684,24.855144 L20.6407357,24.855144 C20.6115941,24.8781307 20.6372783,24.9091127 20.6081367,24.9315997 C21.009204,24.9660797 20.3730282,24.4633712 20.6649381,24.2859741 C20.7815045,24.2355034 20.9089372,24.2419996 20.9123947,24.3559336 L20.96969,24.0486118 C21.0314307,24.0011393 21.1040377,24.0955846 21.042791,24.1425573 L21.2764176,23.8107498 L21.2882718,23.8272402 C21.2502396,23.7123069 21.2196162,23.5044274 21.2122073,23.4104819 C21.3514943,23.4019868 21.2294947,23.4969318 21.3080289,23.5359092 L21.340134,23.2600692 C21.5288135,23.3140379 21.5268378,23.5658918 21.4043443,23.6613364 C22.034593,23.9721561 21.40632,23.4094825 21.9960668,23.3515161 L21.9160509,23.5638929 C22.2855071,23.7277979 22.2958795,23.5124228 22.630267,23.5024286 C22.5013524,23.4579544 21.8715977,23.4374663 21.9130874,23.1446361 C21.9960668,23.1301445 22.074601,23.0811729 22.0642285,22.8922825 C22.2390781,23.0561874 22.2825435,22.9227648 22.3808347,22.7968378 L22.603595,23.0232065 C22.6539754,22.8338164 22.5275305,22.7328749 22.4924618,22.5604749 C22.6445908,22.4410442 22.8505576,22.5814628 23.0313343,22.6908993 C23.2763213,22.5005097 22.6011254,22.5749665 22.8041287,22.2676448 C23.0659091,22.1637051 23.093075,21.9433329 23.1622245,21.5885386 C23.3627582,21.5325711 23.2817545,21.7449479 23.3914059,21.7604389 L23.3153414,21.4701073 C23.3454708,21.4461212 23.3938755,21.508585 23.4180778,21.5405665 C23.4373409,21.3746627 23.1948236,21.3136981 23.2743456,21.1008215 C23.0589941,20.818985 23.9376873,21.1368007 23.8255662,20.6730696 C23.9342298,20.6880609 23.946084,20.8299786 24.0483266,20.899938 C24.1006827,20.4591937 24.11797,20.5456435 24.0616625,20.0899079 L24.3822201,20.0509305 C24.084877,20.0209479 24.0384481,19.65516 24.0093065,19.3458394 C23.8813798,19.313858 23.7702466,19.2853745 23.7104816,19.2798777 L23.8087728,18.9225849 C23.8729831,18.9295808 23.9302784,19.0290232 23.9900434,19.1594475 C23.986092,19.1249675 23.9816466,19.0914869 23.9752256,19.0630035 C24.1397028,19.0580064 24.2320668,19.2289072 24.303686,19.4123009 C24.2320668,19.3963101 24.1564962,19.3798197 24.0814196,19.363829 C24.1668686,19.5557177 24.2710869,19.7581003 24.4172888,19.8735334 C24.4054346,19.8330568 24.4098799,19.781087 24.4276612,19.7356133 C24.4513696,19.7875832 24.4760659,19.8295589 24.5061953,19.8440505 C24.5378066,19.8590418 24.5096528,19.7855844 24.4874262,19.6906394 L24.7951417,19.8795299 L24.7052472,19.7700933 L25.1562011,19.6081873 C25.1053268,19.1389594 24.9042992,18.5832817 25.1275534,18.1265466 C25.2347352,18.3933918 25.4179815,18.4368666 25.6372843,18.6532411 C25.3112936,18.5263147 25.4826857,19.0240261 25.2638768,19.1634452 C25.3774796,19.0904875 25.4644105,19.2124168 25.4787343,19.272382 L25.5686287,18.7391913 C25.7439722,18.9195866 25.7701503,18.7991565 25.9252428,18.7846649 C25.5039245,18.5078255 25.9119068,18.3119391 25.9252428,18.0725779 C26.0536634,18.1795159 26.1480031,18.3289292 25.9677204,18.4643507 C26.4063261,18.5418058 25.7592839,17.8297188 26.1539302,17.8716944 C26.1198494,17.9141698 26.0813232,17.9181675 26.12874,17.9921246 C26.1070073,17.7967379 26.4028686,17.6498231 26.4591761,17.8037338 L26.4246013,17.8457095 C26.7125598,17.6213396 27.1733921,17.0421755 26.903215,16.7118671 C26.9456925,16.7468468 27.2410599,17.0966439 27.2879828,17.1711008 L26.6932967,15.7214416 C26.9185266,16.0127726 27.6939894,16.4470207 27.6391637,16.8073118 C27.7354791,16.7798277 27.8510577,16.7433489 27.881681,16.522477 C27.8036408,16.5299726 27.4010917,16.2691239 27.4317151,16.1871714 C27.8742721,16.3036039 27.6920137,16.2236503 28.1261741,16.2616283 C28.0096077,16.2726219 27.663366,15.8098903 27.7705478,15.7204421 C27.8179647,15.7943992 28.186433,16.0977233 28.1948297,16.1761778 L28.0244254,15.5380479 C28.0387493,15.6704711 28.357825,15.8748526 28.5242779,15.9268224 C28.4205536,15.8778508 28.7346901,15.7144456 28.7574106,15.6085071 L28.563298,15.6274961 C28.8902765,15.3991285 28.2550886,14.8039737 28.5395896,14.5401267 C28.5914517,14.6540606 28.9762195,15.1132943 29.1609476,15.0173499 C29.0152396,14.7540027 28.4338895,13.777569 28.5064966,13.3753023 L28.6694919,13.4392652 L28.7129573,13.1184513 C28.913985,13.5342102 29.2602266,14.4941534 29.3456757,14.9204062 C29.5388005,14.9024166 29.5131164,15.0233465 29.6509215,14.8524456 C29.8149048,14.9009175 29.7383463,15.0998021 29.7013019,15.1532711 L30.1191628,14.8474485 C29.8608398,14.6345719 30.1408955,14.3317476 29.9250501,14.1543505 L29.8010748,14.7984769 C29.5437397,14.5861001 29.3298701,13.911991 29.6178285,13.6881209 C29.7768725,13.712107 30.0030903,14.1468548 30.0885394,14.2178137 C30.0371711,14.1043795 30.1621343,13.8160467 30.2436319,13.8475284 L30.2693161,14.0823922 C30.4970156,14.0214276 30.170531,13.5377081 30.5656712,13.5796838 C30.6382783,13.5332107 31.0472484,13.6926183 30.9133947,13.5457035 C30.5444325,13.3837974 29.6706786,12.5927562 29.5244767,12.3299087 C29.5630028,12.325911 30.0860698,12.2589498 30.2875913,12.3184153 C30.5972825,12.4233545 30.6639624,12.9595435 30.9301881,13.049991 C30.8674596,12.9835296 30.8368363,12.8506066 30.831897,12.8026345 C30.9484634,12.7921406 31.0126737,13.0235064 31.1119527,12.8556037 C30.8877106,12.5997521 31.3949719,12.5912571 30.9652568,12.5927562 C31.0210704,12.3898739 31.1499849,12.4958124 31.2872961,12.3254113 C31.0813293,12.2259689 30.8798078,11.6697915 30.9366092,11.4664095 C30.9919288,11.5333706 31.1010863,11.5798437 31.1524545,11.6003318 C31.433498,11.3414819 31.6839182,11.2970077 31.9274234,11.0381579 C32.0089211,11.0701393 32.1976005,11.0126726 32.253908,11.1665834 C32.2450174,11.0881289 32.1936491,10.974195 32.2623047,10.8882448 C32.6184249,10.9337184 32.1289449,11.0991225 32.4944496,11.2220512 C32.3610898,11.0766356 32.4900043,10.8272802 32.5067978,10.6283955 C32.2534141,10.4544964 32.2193332,10.8532651 32.2025398,11.0521498 C31.8977879,10.7648164 31.7639341,10.2631074 31.8755612,9.85734274 C32.0005243,9.56900997 32.1590744,9.94928941 32.1501837,9.87083492 C32.5803927,9.51404186 31.9397715,9.02082792 32.4727169,8.89090328 C32.7903109,8.94037458 32.8639058,9.25019489 33.0308526,9.35263547 C32.9414521,9.59849287 32.657445,9.50704591 32.5547085,9.6339723 L32.7824081,9.57350737 C32.7947562,9.69093926 32.7349913,9.85484419 32.6189188,9.86583781 C32.8969988,9.91880709 33.2886816,9.21021807 33.7401293,9.04831198 C33.7267933,8.93088009 33.74902,8.77097284 33.6285022,8.74248936 L33.563798,8.8674169 C33.3227624,8.81094965 33.5208265,8.47564413 33.3311592,8.53261109 C33.3444951,8.29524876 33.3104143,7.98193048 33.5721947,7.87799077 L33.8260723,8.0518899 C33.7574167,7.99492294 33.5810854,8.04989106 33.5993606,8.16682324 C33.5736765,7.99592237 34.1644112,8.16232585 33.9549868,7.80253453 L33.6798704,7.78904236 C33.6922186,7.54968118 33.6107209,7.1624058 33.8344691,7.06196406 C33.5460167,6.93054029 33.8240966,7.12392812 33.4595797,7 C33.8720074,7.19838494 33.0520913,7.4127606 33.5386078,7.56467249 C33.1296376,7.40476524 33.2180503,7.65512003 32.8189586,7.57466669 C32.8965049,7.63862959 33.0101077,7.65062264 32.8451366,7.75606148 C32.8609422,7.78254612 32.8737843,7.82302265 32.8811932,7.84750845 C32.8752661,7.84950729 32.8727964,7.850007 32.8668693,7.85200584 L32.882675,7.85200584 C32.8881081,7.86849627 32.8895899,7.87149453 32.8881081,7.85200584 C32.9508366,7.84900758 33.0140591,7.85850207 33.0654273,7.88598613 C33.1686577,8.11385396 32.9577516,8.33122789 32.975039,8.48813688 C32.8639058,8.5381079 32.9236708,8.37420296 32.8036469,8.34571948 L32.829331,8.58058326 C32.657445,8.43866557 32.3566445,8.54610326 32.4425875,8.26076875 L32.2726772,8.42967079 C32.0859734,8.44716065 31.9180388,8.55509804 31.9051967,8.70750964 C31.7940635,8.75698095 31.8908729,9.08678966 31.8311079,8.89440125 L31.6765093,9.26468648 L31.6335378,9.22920706 C31.3618789,9.48156069 31.3836116,10.0427352 30.8042372,10.0767155 C30.7602778,10.2066401 30.7232334,10.3485578 30.5355418,10.4579944 L30.3676072,10.3555538 C30.3078422,10.518959 29.9013417,10.5754263 30.0001267,10.7643167 C29.5062014,10.5339503 29.390129,11.2565312 29.1323,11.399948 L29.3076434,11.5808431 C29.1658869,11.7132663 29.0917981,11.8986588 29.0014097,12.1450159 L29.1732958,12.2869336 C29.1653929,12.5652721 28.6961639,12.5692698 28.490197,12.8261208 C28.4432741,12.7511643 28.5163751,12.705191 28.5934274,12.6971956 C27.9621909,12.6392292 28.2975661,13.5561974 27.7903048,13.5651922 C27.7888231,13.6856223 27.7251067,13.7136061 27.6421272,13.7206021 C27.6475604,13.7141058 27.6495361,13.7061105 27.6490422,13.696616 C27.6406455,13.7016131 27.6312609,13.7111076 27.6218763,13.7216015 C27.5680384,13.7236003 27.5082735,13.7226009 27.4524599,13.7300965 C27.5166702,13.7400907 27.5739655,13.7445881 27.6095282,13.7360931 C27.5665567,13.7895621 27.5161763,13.884507 27.4880225,13.9974415 L27.2850192,13.8650183 C27.2815618,13.8730137 27.2766225,13.8780108 27.2736589,13.8870055 C27.1422748,13.8994983 27.3018127,14.0234264 27.4682655,14.1078774 C27.4618445,14.17234 27.464808,14.2393012 27.4816015,14.3057627 C27.1462262,14.0998821 27.3951646,14.5905975 27.0207692,14.3887145 C27.1205421,14.5771053 26.7841789,14.8674369 27.0543561,15.1977453 C27.0118785,15.1622659 26.9728584,15.1662636 27.0074332,15.1237882 C26.8958061,15.1732595 26.783685,15.2237302 26.8009724,15.3796398 L26.5475887,15.2062404 L26.6765032,15.668972 C26.4404069,15.6514821 26.3198891,15.6234984 26.2512335,15.3531552 C26.268027,15.8643587 26.1514606,15.6604769 26.201841,16.1302045 L26.0699629,15.9842891 C26.0008134,16.0697396 26.0734204,16.3790601 25.9099311,16.3160967 C25.4728072,16.2386416 25.0500071,17.1696016 24.3708598,17.3924724 C24.8741697,17.7007935 23.9841163,17.4284515 24.2928196,17.7547622 C24.1688443,17.6883008 24.0532658,17.6987947 24.0359784,17.5423854 C23.9154607,17.8701953 23.5509438,17.7467669 23.6754129,18.1695217 C23.5504498,18.1020608 23.576134,17.9811309 23.4951302,17.9491495 C23.4990816,17.9886266 23.5124176,18.1055588 23.430426,18.074077 C23.3489283,18.0420956 23.3785638,17.9606428 23.3696732,17.8821883 C23.1642002,18.1385396 23.4477134,18.4533571 23.7193723,18.743189 C23.4704339,18.7356933 23.4333895,18.8146475 23.5405713,19.0814927 C23.4072115,19.0350197 23.2432283,19.0125327 23.3474465,18.8311379 C23.2560703,18.9020968 22.7349791,19.2139159 22.9572455,19.4407843 C22.8742661,19.4118012 22.8312946,19.5422255 22.8377156,19.5891983 C22.6490361,19.7650962 22.6134735,19.762098 22.4638141,19.9679786 L22.5487693,19.9524876 C22.7591815,20.2887925 22.4682594,20.1648644 22.3635473,20.3457595 L22.338851,20.3142777 C21.8217112,20.467189 22.2983491,20.5536389 21.7565131,20.6745688 L21.9466743,20.8199844 C22.2894585,21.2037618 21.4502793,20.9114314 21.4112592,21.2422395 L21.5752425,21.2652262 C21.6038901,21.4925943 20.7928647,21.0848308 20.6466628,21.1487937 C20.592825,21.1417978 20.6288815,21.0623438 20.6357965,21.006876 C20.1557011,21.0808331 20.8279334,21.2582302 20.6866708,21.5180795 C20.5286147,21.4406244 20.4224207,21.1737792 20.2693039,21.2932099 C20.1053207,21.2702233 20.2865913,22.0787543 19.8741636,22.0492714 C20.0075235,22.0962442 20.1403894,22.1432169 20.1211263,22.3076216 C20.0164141,22.4885167 19.3915986,22.374083 19.5634846,22.7903416 C19.5205131,22.7848448 19.4889019,22.7688541 19.4651935,22.7473665 C19.4375336,22.9312599 19.2453967,23.2440784 19.3436878,23.46545 C18.6319414,23.0202083 18.9865798,24.4768634 18.4195535,23.9851486 C18.3227442,24.1250675 18.2264287,24.265486 18.1335708,24.4119011 L18.0812147,24.353435 C17.8382034,24.5833017 17.920195,24.7981771 18.0011988,24.9935637 C17.9152558,25.0255452 17.8890777,24.939595 17.860924,24.9116113 C17.463808,25.2264287 17.4554113,25.3088808 17.5813623,25.8485678 L17.3472417,25.7681145 C17.3635412,26.0509504 16.8547981,25.8720542 17.0029757,26.3152971 C16.9842065,26.2873134 16.9525953,26.2383418 16.9338262,26.1918687 C16.9975425,26.4502189 16.8414621,26.4297308 16.7777458,26.3972496 C16.7145233,26.3817586 16.7105719,26.4072438 16.9802551,27.1643047 C17.0252023,27.3461992 17.0795341,27.5390873 17.1388052,27.7444682 C17.1378173,27.662016 17.1975823,27.8284195 17.2692015,28.048292 C17.3408206,28.2661656 17.4252819,28.546503 17.4578809,28.5919767 C17.5181398,28.8623199 17.3472417,28.4875372 17.2909342,28.2291871 L17.3151365,28.2851546 C17.2395659,28.0582862 17.1990641,27.9528473 17.1768374,27.9063743 C17.1610318,27.8733934 17.1714042,27.8968798 17.1437444,27.8549042 C17.1210239,27.8214236 17.0992911,27.7934398 17.0780524,27.7674549 C16.9930972,27.6650143 16.9165388,27.5950549 16.8439318,27.3212137 C16.6641429,27.1837934 16.4616336,26.9314398 16.3050592,26.7110676 C16.1440396,26.4866977 16.0294489,26.2943093 15.9059676,26.1728797 C15.8585507,26.2933099 15.8160732,26.417238 15.7780409,26.5446641 L15.6594988,26.4132403 C15.671847,26.3112994 15.7814984,26.1418977 15.8407694,26.213856 C15.9193035,26.0079754 15.6273937,26.2563313 15.5621955,26.3043035 C15.499467,26.1508925 15.5745437,26.075936 15.69111,26.0599452 C15.7987858,26.0364589 15.8536115,25.9899858 15.8447208,25.9759939 L15.8131096,25.9664994 L15.7479115,25.927522 L15.7464297,25.9829899 C15.5552806,26.0119731 15.4431595,26.1244078 15.2821399,25.9580044 C15.2203992,25.8060925 15.3725282,25.7386316 15.3389413,25.68966 C15.3557347,25.6701713 15.3493137,25.6481841 15.2796702,25.6231985 L15.0465375,25.3753423 L14.9601006,25.6821643 C14.7546276,25.6891603 14.7314131,25.4592936 14.6350977,25.8090907 C14.791672,25.2778988 13.8092545,24.8301585 13.8077728,24.617282 C13.5133933,24.632773 13.3607704,24.4908553 13.1874026,24.2984669 C13.1948114,24.3864159 13.0086016,24.6537608 12.8707964,24.4743649 C13.3736124,24.0311219 12.7616389,23.9836495 12.9488366,23.5054269 C12.8549908,23.8512263 12.4321907,23.1366407 12.3161183,23.6428471 C12.2153575,23.4769434 12.4741744,23.4494593 12.4756562,23.2380819 C11.9777794,23.1311439 11.8755369,22.4540367 11.4201377,22.1462152 C11.3544457,22.205181 11.3307373,22.3660877 11.1573695,22.3820784 L11.2433125,21.8628795 C11.1361307,21.8209039 10.8294031,22.1662036 10.8916376,21.8089108 C10.8624961,21.8818685 10.8175488,21.9918048 10.7454358,21.9628216 C10.2599072,20.9184273 8.92383915,20.7095485 8.70009097,19.3713246 C8.68774284,19.5961942 8.60624516,19.5402267 8.52178393,19.4662696 C8.54598627,19.5462232 8.37163063,19.6211797 8.30001146,19.7166244 L8.2032021,19.1614464 C7.91672541,19.3398429 7.84115483,18.8351356 7.58925291,19.0280237 L7.73100948,19.0884887 C7.33685707,19.2204122 7.34969913,19.8705351 7,20.1938476 C7.44502672,20.0419357 6.97431588,21.0438546 7.64506648,20.8554638 C7.63370619,20.9803914 7.4914557,20.9199264 7.44552064,21.0288633 C7.65049965,20.9439125 7.7566936,20.9893862 7.83819128,21.1957665 L7.78682304,21.2162546 C8.22740444,21.5730476 8.26247313,21.8883647 8.6304475,22.4255532 L8.75738631,22.220672 C8.83394474,22.3381039 8.80480314,22.412061 8.81023632,22.4990106 C9.16685041,22.346599 8.54746805,22.2196726 8.91939382,22.0307821 C8.72231761,22.5070059 9.60990142,22.6983949 9.32935184,23.1826141 C9.47999906,23.3290292 9.46913271,22.9397549 9.61977993,23.08617 L9.56050889,23.2325851 L9.72794958,23.1296448 C9.8064837,23.2470767 9.73239491,23.4299706 9.65139115,23.5254153 C9.63756124,23.491435 9.55902712,23.4859382 9.52593412,23.4694477 C9.53828225,23.7193028 9.93292859,23.770773 9.93934962,23.8542245 L9.85390054,23.6493434 C10.3641254,23.9401747 10.7474115,24.560315 11.3554335,24.7122269 L11.398899,24.6012913 C11.8468892,24.7342142 11.5658457,24.9211058 11.9723463,25.1629655 L11.9417229,25.1714606 C12.0839734,25.1514721 12.2128879,25.1929481 12.298337,25.287893 C12.1249692,25.3063823 12.2929038,25.6256971 12.0834795,25.6296948 C12.5699959,25.7721122 12.3669926,25.6521817 12.8643754,25.5457435 L12.7947319,25.7301365 C12.9814357,25.674169 13.045646,25.6142038 13.2486493,25.7331348 C13.0036623,25.7251394 13.1725848,26.0429551 12.8767235,26.0579464 C12.973039,26.6855824 13.6823157,26.2323452 13.4605433,26.8260009 C13.9618775,26.589638 13.3336045,26.3317876 13.4985755,26.332787 C13.5301867,26.1374003 13.8863069,26.1678826 13.9658289,26.3078015 C14.0739985,26.4187371 13.7346718,26.9754143 14.0339906,27.2272682 C14.0063308,27.1997841 13.9791649,27.2272682 13.951505,27.1997841 C13.9757074,27.3951708 14.2809532,27.2567511 14.2779897,27.5350896 C14.4187584,27.4536369 14.4508635,27.4876172 14.5042075,27.5260949 C14.5615028,27.5680705 14.6173164,27.5945552 14.7506762,27.4496392 C14.5975594,27.3556937 14.5032196,27.3132183 14.3910986,27.255252 C14.60645,27.3072218 15.0653067,27.098343 15.2371927,27.5450839 C15.1784156,27.5990525 15.0322137,27.6100462 14.9314529,27.5990525 C14.9724487,27.7889424 15.1561889,27.6934978 15.2045936,27.8933818 C15.0104809,28.2471766 14.6854781,27.5540786 14.3041677,27.6185412 C14.2725565,27.7014931 14.4553089,27.7669552 14.5639724,27.81043 C14.6731299,27.8549042 14.7348706,27.9008775 14.5516243,28.0238062 C14.7980931,27.8798897 14.8879875,27.9798317 15.0001085,28.1212497 C15.1067964,28.2591697 15.2441076,28.4410642 15.4545198,28.3496172 L15.3621558,28.5814827 C15.4248843,28.5864798 15.5552806,28.5515001 15.6392479,28.6319535 C15.5626895,28.7014132 15.4811918,28.7653761 15.393767,28.8248416 C15.5636773,28.798357 15.6674016,28.963761 15.7849559,29.1596474 C15.8995465,29.3525355 16.0269793,29.5779048 16.1633027,29.6003918 C15.6150455,29.1386596 16.0669872,29.1426573 15.8758381,28.7513842 C16.4690424,28.8468288 16.1840475,29.8282596 16.9703766,30.3509564 C16.8656645,30.3059825 16.5638761,29.8182654 16.7085962,29.7977773 C16.8498589,29.9821703 17.0518743,30.2740011 17.1763435,30.5423454 C17.6687871,30.8981391 17.0316234,30.1006017 17.2000519,30.0536289 C17.450966,30.644786 17.3946585,30.0656219 17.5324637,30.0616243 L17.6396455,30.468888 C17.9419278,30.8271802 17.9147619,30.6397889 17.8727782,30.4454017 C17.8525273,30.3484579 17.8312885,30.2520138 17.8466002,30.2225309 C17.854503,30.2075396 17.8717904,30.2095385 17.9034016,30.2370225 C17.9192072,30.2505147 17.9389642,30.2705031 17.9631665,30.2984869 C17.9750208,30.3124788 17.9873689,30.3279698 18.0016927,30.3439605 L18.0160166,30.3574527 C18.0293525,30.4119211 18.052567,30.479382 18.0575063,30.5213576 L18.0624455,30.6347918 L18.0639273,30.8541646 C18.1281376,30.870655 18.2140806,30.9176278 18.184939,30.8131884 L18.3513919,31.3348858 C18.3084203,30.9556057 18.2822423,30.9631014 18.5499498,31.2304463 C18.4536344,31.0250655 18.3662096,30.7802075 18.3074325,30.5698295 C18.257546,30.3679466 18.1972871,30.1675628 18.2758213,30.1650643 C18.5781036,30.5843211 18.4378288,30.7317356 18.7322083,30.7717124 C18.7939489,30.9760939 18.8551957,31.1939675 18.8418597,31.2664255 C18.8339569,31.3443803 18.7312204,31.2584301 18.5524195,30.9496092 C18.6245326,31.1469947 18.6591073,31.3133982 18.7228237,31.4962922 C18.7855522,31.5967339 18.8235845,31.6556997 18.8868069,31.7196626 C18.9599079,31.7926203 19.0280695,31.846589 19.0893163,31.8850667 C19.2123037,31.9635212 19.3046677,31.9785125 19.3797444,32 C19.3619631,31.8940614 19.3461575,31.8041136 19.3338093,31.7286574 C19.3382547,31.7956185 19.3431939,31.865578 19.3422061,31.919047 C19.2957771,31.8705751 19.2488542,31.8146075 19.2048948,31.7491455 L19.2276154,31.6721901 L18.6902246,29.6213796 C18.7776494,29.6023906 18.8813737,29.9147095 18.9944826,30.2755002 C18.9189121,29.8787303 18.7712284,29.4874573 18.7178844,29.1011813 C18.8304994,29.3170561 18.9441022,29.5104439 19.051284,29.748306 C19.1604415,29.9956625 19.2587327,30.2550121 19.3659145,30.7272382 L18.9421265,28.9027964 C19.0241181,28.9502688 19.1075915,28.606968 19.1915588,28.8353355 C19.196992,28.6964161 19.1624172,28.4890364 19.1135186,28.2611685 C19.1006766,28.2047013 19.0878345,28.1467349 19.0744985,28.08627 C19.0670896,28.0372984 19.0700532,28.0028184 19.0665957,27.9593436 C19.0621504,27.8783905 19.0572111,27.7934398 19.0527658,27.7079894 C19.0428873,27.5400867 19.0349845,27.3766815 19.0443691,27.229267 C19.0665957,27.094845 19.1204336,26.9824102 19.2068705,26.8969598 C19.1787168,26.868976 19.1579719,26.830998 19.1555023,26.7745308 C19.2997285,26.5996322 19.5970715,26.5681505 19.5254524,26.1933678 L19.8988599,26.2678247 C19.9591188,26.0464531 19.4177766,26.1873713 19.5234767,25.8105899 C19.5921323,25.5297527 19.8193379,25.9115313 19.9507221,25.8975394 C19.88503,25.6901597 19.7556216,25.2773991 20.1319927,25.2679046 C20.130017,25.3733435 20.0509889,25.3898339 20.0228352,25.4657898" id="Fill-280" fill="#38B8C2"></path>
                <path d="M24.0508793,19.0311873 C24.0141207,19.0174095 23.9818448,18.9934095 23.9491207,18.9680762 C23.9616724,19.0080762 23.9921552,19.0369651 24.0508793,19.0311873" id="Fill-282" fill="#38B8C2"></path>
                <path d="M18.9908103,26.9833333 C18.9881207,26.9842222 18.9876724,26.9864444 18.985431,26.9882222 C18.9957414,26.9971111 19.0038103,27.0095556 19.014569,27.0166667 C19.0091897,27.0006667 18.9997759,26.9926667 18.9908103,26.9833333" id="Fill-284" fill="#38B8C2"></path>
                <path d="M31.0744138,12.9873271 C31.0165862,13.0033271 30.9686207,12.9966604 30.9255862,12.9828826 C30.9623448,13.0206604 31.0103103,13.0339937 31.0744138,12.9873271" id="Fill-286" fill="#38B8C2"></path>
                <path d="M32.9926034,6.92355556 L32.9253621,7.07644444 C32.9697414,7.01377778 33.0230862,7.02577778 33.0746379,7.02133333 C33.0356379,6.98933333 32.9612241,6.96177778 32.9926034,6.92355556" id="Fill-288" fill="#38B8C2"></path>
                <path d="M35.0303415,7.06260492 C35.0267553,7.02749381 35.0617208,7.02482714 35.0581346,6.99016048 L34.9805829,6.92660492 C34.917376,7.00260492 34.9290312,7.10749381 35.0303415,7.06260492" id="Fill-290" fill="#38B8C2"></path>
                <path d="M33.8921897,7.06878293 C34.0333966,7.18256071 34.0562586,7.06878293 34.1078103,6.96567182 C34.1042241,6.97100516 34.1006379,6.97633849 34.0943621,6.97989404 C33.9311897,6.7834496 33.9114655,6.92656071 33.8921897,7.06878293" id="Fill-292" fill="#38B8C2"></path>
                <path d="M33.9666034,7.05372851 C33.9836379,7.02306184 34.0042586,6.9946174 34.0333966,6.97595073 C33.9679483,6.89772851 33.9894655,6.99195073 33.9666034,7.05372851" id="Fill-294" fill="#38B8C2"></path>
                <path d="M32.0604613,8.05745898 C32.1308406,8.05123676 31.9134268,7.87612565 31.9878406,7.90457009 C31.8591854,7.70501454 31.9519785,8.34901454 32.0604613,8.05745898" id="Fill-296" fill="#38B8C2"></path>
                <polygon id="Fill-298" fill="#38B8C2" points="34.0957069 8.03933333 33.9042931 7.91622222 33.9939483 8.08377778"></polygon>
                <path d="M32.9227319,8.08666667 L33.0899388,8 C33.0608009,7.97644444 33.0599043,7.94533333 33.0661802,7.91333333 C32.9863871,7.98755556 32.8716284,8.04444444 32.9227319,8.08666667" id="Fill-300" fill="#38B8C2"></path>
                <path d="M33.9643429,8.06444444 C34.0069291,8.02622222 34.0401015,7.98355556 34.0351705,7.93555556 C34.0154463,7.96 33.9755498,8.01288889 33.9643429,8.06444444" id="Fill-302" fill="#38B8C2"></path>
                <polygon id="Fill-304" fill="#38B8C2" points="34.0840517 7.95688889 34.0141207 7.96355556 33.9159483 8.04311111"></polygon>
                <path d="M32.0152414,9.88492726 L31.930069,10.0689273 C31.9722069,10.1355939 32.0430345,10.1289273 32.069931,10.0560384 C32.0623103,9.98626059 32.0901034,9.91381615 32.0152414,9.88492726" id="Fill-306" fill="#38B8C2"></path>
                <path d="M33.0833793,9.95733333 C33.0138966,9.964 32.9744483,9.93244444 32.9004828,9.90355556 L33.0995172,10.0964444 L33.0833793,9.95733333 Z" id="Fill-308" fill="#38B8C2"></path>
                <path d="M32.9376897,10.8970835 C32.9811724,10.9633057 32.9072069,11.2513057 33.0623103,11.0615279 C33.0201724,10.9953057 33.1057931,10.8113057 32.9376897,10.8970835" id="Fill-310" fill="#38B8C2"></path>
                <polygon id="Fill-312" fill="#38B8C2" points="30.138069 12.1711111 30.169 12.1333333 29.831 11.8288889"></polygon>
                <path d="M29.0518007,15.172 C29.2889386,15.0795556 28.8836973,14.9417778 29.1253179,14.884 C29.08318,14.7715556 28.9280766,14.9311111 28.8975938,14.828 C28.8859386,15.0057778 28.789111,15.0146667 29.0518007,15.172" id="Fill-314" fill="#38B8C2"></path>
                <path d="M29.0022817,15.0491111 C29.0045231,15.0211111 29.0045231,14.9891111 29.0000403,14.9508889 C28.9933162,14.9993333 28.9964541,15.0277778 29.0022817,15.0491111" id="Fill-316" fill="#38B8C2"></path>
                <polygon id="Fill-318" fill="#38B8C2" points="8.039 19.082 8.00044828 18.9126667 7.961 19.0873333"></polygon>
                <path d="M6.94508621,19.1151111 L7.1235,18.8848889 L6.8765,19.0106667 C6.90922414,19.0244444 6.97287931,19.0511111 6.94508621,19.1151111" id="Fill-320" fill="#38B8C2"></path>
                <path d="M23.099069,23.0365031 L23.0555862,22.9809475 C22.9847586,22.9462809 22.9569655,22.9671698 22.900931,23.009392 L23.099069,23.0365031 Z" id="Fill-322" fill="#38B8C2"></path>
                <polygon id="Fill-324" fill="#38B8C2" points="20.0905517 24.0762222 20.1174483 24.0562222 19.8825517 23.9237778"></polygon>
                <path d="M20.0128854,26.0835556 C20.0568164,26.0448889 20.0523336,25.956 20.0967129,25.9164444 C20.0581612,26.044 19.7398854,25.9017778 20.0128854,26.0835556" id="Fill-326" fill="#38B8C2"></path>
            </g>
        </g>
    </g>
</svg>