<?xml version="1.0" encoding="UTF-8"?>
<svg width="72px" height="52px" viewBox="0 0 72 52" version="1.1" xmlns="http://www.w3.org/2000/svg" xmlns:xlink="http://www.w3.org/1999/xlink">
    <!-- Generator: Sketch 53.2 (72643) - https://sketchapp.com -->
    <title>campaign-manager-icon-new</title>
    <desc>Created with Sketch.</desc>
    <defs>
        <polygon id="path-1" points="0 0.214643172 71.8989714 0.214643172 71.8989714 51.7708793 0 51.7708793"></polygon>
    </defs>
    <g id="Options" stroke="none" stroke-width="1" fill="none" fill-rule="evenodd">
        <g id="Version-6" transform="translate(-738.000000, -2483.000000)">
            <g id="campaign-manager-icon-new" transform="translate(738.000000, 2483.000000)">
                <g id="Group-3">
                    <mask id="mask-2" fill="white">
                        <use xlink:href="#path-1"></use>
                    </mask>
                    <g id="Clip-2"></g>
                    <path d="M69.9018514,9.62957533 L1.99716571,9.62957533 L1.99716571,3.89491454 C1.99716571,3.22074714 2.44402286,2.66890573 2.99579429,2.66890573 L68.9032229,2.66890573 C69.45248,2.66890573 69.9018514,3.22074714 69.9018514,3.89491454 L69.9018514,9.62957533 Z M69.6085943,48.955778 C69.51808,49.0673374 69.4104229,49.1573639 69.2911086,49.2196722 C69.1715657,49.2822097 69.0405943,49.3165709 68.9032229,49.3165709 L2.99579429,49.3165709 C2.85796571,49.3165709 2.72653714,49.2822097 2.60699429,49.2196722 C2.57705143,49.2040952 2.54802286,49.1869145 2.51968,49.1679013 C2.43488,49.1110907 2.35739429,49.0393903 2.28950857,48.955778 C2.26710857,48.9278308 2.24539429,48.8987383 2.22528,48.8682714 C2.18459429,48.8075665 2.14848,48.741822 2.11762286,48.6721833 C2.10230857,48.6371348 2.08836571,48.60117 2.07556571,48.5645181 C2.02505143,48.4172229 1.99716571,48.255496 1.99716571,48.0855225 L1.99716571,12.0838837 L69.9018514,12.0838837 L69.9018514,48.0855225 C69.9018514,48.4252405 69.7896229,48.7328881 69.6085943,48.955778 L69.6085943,48.955778 Z M68.9032229,0.214597357 L2.99579429,0.214597357 C1.34299429,0.214597357 -9.14285714e-05,1.86508194 -9.14285714e-05,3.89491454 L-9.14285714e-05,3.89491454 L-9.14285714e-05,48.0855225 C-9.14285714e-05,48.3395665 0.0209371429,48.5878837 0.0609371429,48.827496 C0.0808228571,48.9473022 0.105737143,49.0650467 0.134765714,49.1805004 C0.149394286,49.2379982 0.165165714,49.295267 0.18208,49.3516194 C0.358308571,49.9430907 0.655222857,50.4630907 1.03488,50.8685533 C1.08859429,50.925822 1.14345143,50.9817163 1.20013714,51.0341744 C1.30093714,51.1269498 1.40676571,51.2117075 1.51670857,51.2886767 C1.55030857,51.3122714 1.58413714,51.3351789 1.61842286,51.356941 C2.03122286,51.6208352 2.49933714,51.7708793 2.99579429,51.7708793 L68.9032229,51.7708793 C69.39968,51.7708793 69.8680229,51.6208352 70.2805943,51.356941 C70.31488,51.3351789 70.3487086,51.3122714 70.3823086,51.2886767 C70.4922514,51.2117075 70.59808,51.1269498 70.69888,51.0341744 C70.7557943,50.9817163 70.8104229,50.925822 70.8641371,50.8685533 C71.2440229,50.4630907 71.5407086,49.9430907 71.7169371,49.3516194 C71.7338514,49.295267 71.7496229,49.2379982 71.7642514,49.1805004 C71.7935086,49.0650467 71.8181943,48.9473022 71.83808,48.827496 C71.87808,48.5878837 71.8991086,48.3395665 71.8991086,48.0855225 L71.8991086,3.89491454 L71.8991086,3.89491454 C71.8991086,1.86508194 70.5560229,0.214597357 68.9032229,0.214597357 L68.9032229,0.214597357 Z" id="Fill-1" fill="#36B8C2" mask="url(#mask-2)"></path>
                </g>
                <path d="M59.761257,22.4020372 L21.9129434,22.4020372 C21.4209829,21.0118415 20.0425866,20 18.4039273,20 L16.6185867,20 C14.9797007,20 13.6017579,21.0118415 13.1100241,22.4020372 L10.2380629,22.4020372 C9.55430574,22.4020372 9,22.9466179 9,23.6186535 C9,24.290912 9.55430574,24.8354926 10.2380629,24.8354926 L13.1886924,24.8354926 C13.7470789,26.1040267 15.0726518,27 16.6185867,27 L18.4039273,27 C19.9498622,27 21.2756618,26.1040267 21.8345018,24.8354926 L59.761257,24.8354926 C60.4450141,24.8354926 61,24.290912 61,23.6186535 C61,22.9466179 60.4450141,22.4020372 59.761257,22.4020372" id="Fill-4" fill="#36B8C2"></path>
                <path d="M59.761257,34.2814947 L44.1300617,34.2814947 C43.6020543,32.9529251 42.2517701,32 40.6607199,32 L38.8780998,32 C37.2870496,32 35.9367654,32.9529251 35.4089847,34.2814947 L10.2380629,34.2814947 C9.55430574,34.2814947 9,34.8266917 9,35.4986632 C9,36.1706347 9.55430574,36.7160545 10.2380629,36.7160545 L35.4080778,36.7160545 C35.9351784,38.0459609 37.2859161,39 38.8780998,39 L40.6607199,39 C42.2529036,39 43.6036413,38.0459609 44.1307419,36.7160545 L59.761257,36.7160545 C60.4450141,36.7160545 61,36.1706347 61,35.4986632 C61,34.8266917 60.4450141,34.2814947 59.761257,34.2814947" id="Fill-6" fill="#36B8C2"></path>
            </g>
        </g>
    </g>
</svg>