<?xml version="1.0" encoding="UTF-8"?>
<svg width="63px" height="65px" viewBox="0 0 63 65" version="1.1" xmlns="http://www.w3.org/2000/svg" xmlns:xlink="http://www.w3.org/1999/xlink">
    <!-- Generator: Sketch 53.2 (72643) - https://sketchapp.com -->
    <title>campaign-viewer-icon-new</title>
    <desc>Created with Sketch.</desc>
    <defs>
        <polygon id="path-1" points="0 0.0351601423 62.9378482 0.0351601423 62.9378482 64.9998843 0 64.9998843"></polygon>
    </defs>
    <g id="Options" stroke="none" stroke-width="1" fill="none" fill-rule="evenodd">
        <g id="Version-6" transform="translate(-150.000000, -2751.000000)">
            <g id="campaign-viewer-icon-new" transform="translate(150.000000, 2751.000000)">
                <polygon id="Fill-1" fill="#36B8C2" points="32.6308558 42 32 40.9531157 62.3691442 24 63 25.0468843"></polygon>
                <path d="M31,4.53864069 L32,4.53864069 L32,2 L31,2 L31,4.53864069 Z M31,9.61359306 L32,9.61359306 L32,7.07495236 L31,7.07495236 L31,9.61359306 Z M31,14.6932035 L32,14.6932035 L32,12.1545628 L31,12.1545628 L31,14.6932035 Z M31,19.7683887 L32,19.7683887 L32,17.229748 L31,17.229748 L31,19.7683887 Z M31,24.8454372 L32,24.8454372 L32,22.3067965 L31,22.3067965 L31,24.8454372 Z M31,29.9229515 L32,29.9229515 L32,27.3843108 L31,27.3843108 L31,29.9229515 Z M31,35 L32,35 L32,32.4613593 L31,32.4613593 L31,35 Z" id="Fill-2" fill="#36B8C2"></path>
                <polygon id="Fill-3" fill="#238DC1" points="61.7431866 49 61 48.6203503 61.255316 48 62 48.3794829"></polygon>
                <path d="M37.1481828,36.8851658 L35,35.8739179 L35.393142,35 L37.5392617,36.0112479 L37.1481828,36.8851658 Z M41.4399637,38.9076615 L39.2940733,37.8964136 L39.6849229,37.0224957 L41.8308133,38.0337436 L41.4399637,38.9076615 Z M45.7317446,40.9325128 L43.5858541,39.9212649 L43.9767038,39.0449915 L46.1248866,40.0562393 L45.7317446,40.9325128 Z M50.0235255,42.9550085 L47.877635,41.9437607 L48.2684846,41.0674872 L50.4166675,42.0810906 L50.0235255,42.9550085 Z M54.3150771,44.9775043 L52.1694159,43.9683764 L52.5625579,43.0923385 L54.7084483,44.1035864 L54.3150771,44.9775043 Z M58.6091504,47 L56.4611968,45.9887521 L56.8543388,45.1148342 L59,46.1284377 L58.6091504,47 Z" id="Fill-4" fill="#36B8C2"></path>
                <polygon id="Fill-5" fill="#238DC1" points="32.7051238 35 32 34.7061314 31.2948762 35 31 34.4183785 32 34 33 34.4183785"></polygon>
                <path d="M26.8541096,36.8851658 L26.4609676,36.0112479 L28.606858,35 L29,35.8739179 L26.8541096,36.8851658 Z M22.5623287,38.9076615 L22.1691867,38.0337436 L24.3150771,37.0224957 L24.7059267,37.8964136 L22.5623287,38.9076615 Z M18.2684846,40.9325128 L17.8774058,40.0562393 L20.0232962,39.0449915 L20.4141459,39.9212649 L18.2684846,40.9325128 Z M13.9767038,42.9550085 L13.5856249,42.0810906 L15.7315154,41.0674872 L16.1225942,41.9437607 L13.9767038,42.9550085 Z M9.68492287,44.9775043 L9.29178089,44.1035864 L11.4376713,43.0923385 L11.8308133,43.9683764 L9.68492287,44.9775043 Z M5.39314198,47 L5,46.1284377 L7.14589044,45.1148342 L7.53903243,45.9887521 L5.39314198,47 Z" id="Fill-6" fill="#36B8C2"></path>
                <polygon id="Fill-7" fill="#238DC1" points="1.25531596 49 1 48.3794829 1.74318658 48 2 48.6203503"></polygon>
                <g id="Group-10">
                    <mask id="mask-2" fill="white">
                        <use xlink:href="#path-1"></use>
                    </mask>
                    <g id="Clip-9"></g>
                    <path d="M32.4709672,62.4454537 L32.4709672,34.7635498 L61.0353066,18.2015036 L61.0353066,47.6747242 L32.4709672,62.4454537 Z M59.8564395,16.6960943 L31.4711037,33.1538167 L3.13272731,16.7245463 L31.497838,2.05744662 L35.374779,4.03612989 L59.8564395,16.6960943 Z M1.90225129,47.6747242 L1.90225129,18.2001157 L30.5623694,34.8188345 L30.5602771,62.4521619 L20.964517,57.5329804 L1.90225129,47.6747242 Z M62.9373952,16.5283897 C62.9306535,16.1855783 62.7323546,15.8714502 62.4229339,15.7146174 L36.462052,2.46502669 L31.9588306,0.136129893 L31.9460446,0.160418149 L31.905362,0.139599644 C31.6315096,0.000115658363 31.3062808,0.000115658363 31.0345207,0.139599644 L0.516948708,15.7146174 C0.205203321,15.8714502 0.00922915129,16.1855783 0.000162730627,16.5283897 C-0.000999630996,16.5765036 0.00225498155,16.6241548 0.00829926199,16.6711121 C0.00318487085,16.7104359 -6.97416974e-05,16.7499911 -6.97416974e-05,16.7902402 L-6.97416974e-05,48.3358274 C-6.97416974e-05,48.689742 0.1961369,49.0126601 0.514623985,49.1741192 L19.977672,59.154048 L31.0724137,64.8916281 C31.2105022,64.962411 31.3618417,64.9998843 31.5110889,64.9998843 C31.6626609,64.9998843 31.8140004,64.962411 31.9523214,64.8916281 L62.5519561,49.0667883 L62.5291738,49.0233007 C62.7830336,48.8477313 62.9373952,48.559048 62.9373952,48.2474644 L62.9373952,16.7326423 C62.9373952,16.7076601 62.9341406,16.6833719 62.9322808,16.6588523 C62.9369303,16.6158274 62.93879,16.5723399 62.9373952,16.5283897 L62.9373952,16.5283897 Z" id="Fill-8" fill="#36B8C2" mask="url(#mask-2)"></path>
                </g>
            </g>
        </g>
    </g>
</svg>