<?xml version="1.0" encoding="UTF-8"?>
<svg width="60px" height="64px" viewBox="0 0 60 64" version="1.1" xmlns="http://www.w3.org/2000/svg" xmlns:xlink="http://www.w3.org/1999/xlink">
    <!-- Generator: Sketch 53.2 (72643) - https://sketchapp.com -->
    <title>survey-builder-icon-new</title>
    <desc>Created with Sketch.</desc>
    <g id="Options" stroke="none" stroke-width="1" fill="none" fill-rule="evenodd">
        <g id="Version-6" transform="translate(-738.000000, -2751.000000)" fill="#36B8C2">
            <g id="survey-builder-icon-new" transform="translate(738.000000, 2751.000000)">
                <path d="M20.9791651,8.38424202 L23.9243901,8.38424202 L23.9243901,5.75192338 L20.9791651,5.75192338 L20.9791651,8.38424202 Z M35.713254,8.38424202 L38.658479,8.38424202 L38.658479,5.75192338 L35.713254,5.75192338 L35.713254,8.38424202 Z M15.0833278,2.63255046 C14.1930144,2.63255046 13.470645,3.33009751 13.470645,4.190846 L13.470645,9.9453194 C13.470645,10.8062997 14.1930144,11.5063968 15.0833278,11.5063968 C15.9734069,11.5063968 16.6985872,10.8062997 16.6985872,9.9453194 L16.6985872,4.190846 C16.6985872,3.33009751 15.9734069,2.63255046 15.0833278,2.63255046 L15.0833278,2.63255046 Z M15.0833278,14.1389472 C12.7218073,14.1389472 10.8053264,12.2567989 10.8053264,9.9453194 L10.8053264,4.190846 C10.8053264,1.87959837 12.7218073,0 15.0833278,0 C17.4448483,0 19.3639057,1.87959837 19.3639057,4.190846 L19.3639057,9.9453194 C19.3639057,12.2567989 17.4448483,14.1389472 15.0833278,14.1389472 L15.0833278,14.1389472 Z M29.8199932,2.63255046 C28.9299141,2.63255046 28.204968,3.33009751 28.204968,4.190846 L28.204968,9.9453194 C28.204968,10.8062997 28.9299141,11.5063968 29.8199932,11.5063968 C30.70773,11.5063968 31.4326761,10.8062997 31.4326761,9.9453194 L31.4326761,4.190846 C31.4326761,3.33009751 30.70773,2.63255046 29.8199932,2.63255046 L29.8199932,2.63255046 Z M29.8199932,14.1389472 C27.4584727,14.1389472 25.5394153,12.2567989 25.5394153,9.9453194 L25.5394153,4.190846 C25.5394153,1.87959837 27.4584727,0 29.8199932,0 C32.1789371,0 34.0979946,1.87959837 34.0979946,4.190846 L34.0979946,9.9453194 C34.0979946,12.2567989 32.1789371,14.1389472 29.8199932,14.1389472 L29.8199932,14.1389472 Z M44.5515055,2.63255046 C43.6611922,2.63255046 42.9362461,3.33009751 42.9362461,4.190846 L42.9362461,9.9453194 C42.9362461,10.8062997 43.6611922,11.5063968 44.5515055,11.5063968 C45.4418189,11.5063968 46.1641884,10.8062997 46.1641884,9.9453194 L46.1641884,4.190846 C46.1641884,3.33009751 45.4418189,2.63255046 44.5515055,2.63255046 L44.5515055,2.63255046 Z M44.5515055,14.1389472 C42.189985,14.1389472 40.2709276,12.2567989 40.2709276,9.9453194 L40.2709276,4.190846 C40.2709276,1.87959837 42.189985,0 44.5515055,0 C46.913026,0 48.8295069,1.87959837 48.8295069,4.190846 L48.8295069,9.9453194 C48.8295069,12.2567989 46.913026,14.1389472 44.5515055,14.1389472 L44.5515055,14.1389472 Z M55.7194221,64 L4.27800138,64 C1.91905745,64 0,62.1178516 0,59.806604 L0,9.9453194 C0,7.63407178 1.91905745,5.75192338 4.27800138,5.75192338 L9.19006703,5.75192338 L9.19006703,8.38424202 L4.27800138,8.38424202 C3.38768802,8.38424202 2.66531854,9.08457092 2.66531854,9.9453194 L2.66531854,59.806604 C2.66531854,60.6673525 3.38768802,61.3676814 4.27800138,61.3676814 L55.7194221,61.3676814 C56.6097354,61.3676814 57.3346815,60.6673525 57.3346815,59.806604 L57.3346815,9.9453194 C57.3346815,9.08457092 56.6097354,8.38424202 55.7194221,8.38424202 L50.8071222,8.38424202 L50.8071222,5.75192338 L55.7194221,5.75192338 C58.0809425,5.75192338 60,7.63407178 60,9.9453194 L60,59.806604 C60,62.1178516 58.0809425,64 55.7194221,64 L55.7194221,64 Z" id="Fill-1"></path>
                <path d="M48.6628303,25 L12.3371697,25 C11.5990238,25 11,24.3281374 11,23.4998679 C11,22.6718626 11.5990238,22 12.3371697,22 L48.6628303,22 C49.4009762,22 50,22.6718626 50,23.4998679 C50,24.3281374 49.4009762,25 48.6628303,25" id="Fill-3"></path>
                <path d="M37.6736486,37 L12.3261183,37 C11.5941774,37 11,36.3278732 11,35.4998679 C11,34.6718626 11.5941774,34 12.3261183,34 L37.6736486,34 C38.4058226,34 39,34.6718626 39,35.4998679 C39,36.3278732 38.4058226,37 37.6736486,37" id="Fill-4"></path>
                <path d="M29.6498351,51 L29.6472249,51 L12.3473175,50.9790118 C11.601998,50.9790118 11,50.3115872 11,49.4864889 C11,48.6671622 11.601998,48 12.3501649,48 L12.3527751,48 L29.6524452,48.0207258 C30.3951546,48.0207258 31,48.6910363 31,49.5132488 C31,50.3325754 30.3951546,51 29.6498351,51" id="Fill-5"></path>
                <path d="M49.3190859,45.658175 L43.0945848,51.3725569 C42.6745028,51.7627713 42.0898625,52 41.4473131,52 C40.7992141,52 40.2198821,51.7627713 39.7944917,51.3725569 L36.6835683,48.5152536 C36.2634863,48.1275104 36,47.591724 36,47 C36,45.8163274 37.0459826,44.8597745 38.3337355,44.8597745 C38.978939,44.8597745 39.5609252,45.0970032 39.9865568,45.4872175 L41.4473131,46.8265714 L46.0187515,42.6301388 C46.441729,42.2399245 47.0237151,42 47.6662645,42 C48.9566716,42 50,42.9592488 50,44.1429213 C50,44.7373411 49.7391679,45.2731276 49.3190859,45.658175" id="Fill-6"></path>
            </g>
        </g>
    </g>
</svg>