<?xml version="1.0" encoding="UTF-8"?>
<svg width="28px" height="21px" viewBox="0 0 28 21" version="1.1" xmlns="http://www.w3.org/2000/svg" xmlns:xlink="http://www.w3.org/1999/xlink">
    <!-- Generator: Sketch 53.2 (72643) - https://sketchapp.com -->
    <title>Group 3</title>
    <desc>Created with Sketch.</desc>
    <defs>
        <polygon id="path-1" points="0 0 28 0 28 21 0 21"></polygon>
    </defs>
    <g id="Options" stroke="none" stroke-width="1" fill="none" fill-rule="evenodd">
        <g id="Version-6" transform="translate(-739.000000, -1484.000000)">
            <g id="Group-3" transform="translate(753.000000, 1494.500000) scale(-1, -1) rotate(-180.000000) translate(-753.000000, -1494.500000) translate(739.000000, 1484.000000)">
                <mask id="mask-2" fill="white">
                    <use xlink:href="#path-1"></use>
                </mask>
                <g id="Clip-2"></g>
                <path d="M4.13612981,5.16882226 C4.36646374,6.30420753 4.54122504,7.49609837 4.86076766,8.66538698 C5.42234372,10.7123955 6.55500168,12.5944077 8.08471147,14.3257383 C9.36580685,15.7745412 10.9050225,17.0500603 12.7447691,18.12894 C14.6371634,19.2372026 16.6992005,20.0840327 18.9871842,20.5631999 C21.8221196,21.1576386 24.6767979,21.1885283 27.4824845,20.3869026 C28.045523,20.2256733 28.1530122,19.9868431 27.7859403,19.6289745 C27.3464778,19.201039 26.2613491,19.0059064 25.56596,19.1490539 C24.5342102,19.3607614 23.4922234,19.6010984 22.4356122,19.6711653 C19.8880458,19.8384218 17.5327899,19.2899411 15.4502787,18.2072944 C12.7937607,16.8262982 10.8026518,14.9864768 9.34898882,12.8068686 C8.31577662,11.2578626 7.59698851,9.63351576 7.27305857,7.92026685 C7.07782315,6.89035865 7.00250761,5.84764252 6.87308187,4.81020024 L7.05076805,4.76951623 C7.45366962,5.12135758 7.85510876,5.47244553 8.25801033,5.82353348 C8.97241113,6.44509475 9.83013081,6.87453709 10.9613263,6.80447018 C11.2384583,6.78714181 11.6201545,6.59652968 11.7137505,6.41420504 C11.778829,6.28838597 11.4665985,6.01565242 11.2582012,5.85668341 C11.0936769,5.73086434 10.8202011,5.69168714 10.6147286,5.59148393 C10.4172995,5.49354094 10.2147519,5.38505025 10.0677769,5.24868347 C9.51497549,4.7371197 8.96509894,4.22404912 8.45032088,3.69138994 C7.69204696,2.90407899 6.93377304,2.11526122 6.23838393,1.29706056 C5.78356582,0.761387747 5.2234522,0.325164741 4.4388544,0.142840099 C3.16507121,-0.154755906 2.96471725,-0.0153754986 2.65394925,0.827687616 C2.40972216,1.49068631 2.17353848,2.15519182 1.96660355,2.82497119 C1.30119442,4.98273058 0.641635035,7.14199679 0.0113244063,9.30653685 C-0.0383984739,9.47756038 0.0815214137,9.78269046 0.255551494,9.86481189 C0.718413012,10.0833001 1.2383096,10.2543236 1.76478715,10.3673348 C2.33952515,10.4908936 2.5354918,10.3711018 2.67588581,9.91755043 C3.17384583,8.31505244 3.66303123,6.71029423 4.13612981,5.16882226" id="Fill-1" fill="#EA5B2F" mask="url(#mask-2)"></path>
            </g>
        </g>
    </g>
</svg>